# SSTK version 0.8.0
# 28
mtllib original-28.mtl
o mesh26/mesh26-geometry#mesh26-geometry
v 0.497997 -0.786509 -0.062215
v 0.514593 -0.829913 -0.022641
v 0.486508 -0.799275 -0.090300
v 0.510763 -0.799275 -0.034130
v 0.510763 -0.860551 -0.034130
v 0.463529 -0.799275 -0.081364
v 0.475019 -0.786509 -0.052002
v 0.486508 -0.799275 -0.023917
v 0.486508 -0.860551 -0.023917
v 0.481402 -0.829913 -0.103066
v 0.491614 -0.829913 -0.012428
v 0.475019 -0.873317 -0.052002
v 0.486508 -0.860551 -0.090300
v 0.458423 -0.829913 -0.092853
v 0.497997 -0.873317 -0.062215
v 0.463529 -0.860551 -0.081364
vn 0.9245522817901723 0.006117001864373755 -0.3810061161251572
vn -0.9245522817901723 -0.006117001864373755 0.3810061161251572
vn 0.9006169390737163 -0.049348996661565156 -0.43180297078874585
vn -0.9006169390737163 0.049348996661565156 0.43180297078874585
vn 0.9271676092040345 0.024300989757268632 -0.3738578424210089
vn -0.9271676092040345 -0.024300989757268632 0.3738578424210089
vn -0.14056903559412257 0.9217292333952365 -0.36146309152770756
vn 0.14056903559412257 -0.9217292333952365 0.36146309152770756
vn 0.15529597500340658 0.9240088512706233 0.3494149437578257
vn -0.15529597500340658 -0.9240088512706233 -0.3494149437578257
vn 0.3610291731357333 0.3666701758409417 0.8574444111974265
vn -0.3610291731357333 -0.3666701758409417 -0.8574444111974265
vn 0.3610291731357333 -0.3666701758409417 0.8574444111974265
vn -0.3610291731357333 0.3666701758409417 -0.8574444111974265
vn 0.9213316477763603 0.008397996789459038 -0.38868685140562814
vn -0.9213316477763603 -0.008397996789459038 0.38868685140562814
vn -0.3306778502310754 0.4094108145717429 -0.8503146148798434
vn 0.3306778502310754 -0.4094108145717429 0.8503146148798434
vn -0.15255505766505992 0.9267723503153807 -0.3432491297464793
vn 0.15255505766505992 -0.9267723503153807 0.3432491297464793
vn 0.15048902106161718 0.9217431290021076 0.35741105002128826
vn -0.15048902106161718 -0.9217431290021076 -0.35741105002128826
vn 0.3757319966266781 0.3796459965915382 0.8453959924100347
vn -0.3757319966266781 -0.3796459965915382 -0.8453959924100347
vn 0.15048902106161718 -0.9217431290021076 0.35741105002128826
vn -0.15048902106161718 0.9217431290021076 -0.35741105002128826
vn 0.3757319966266781 -0.3796459965915382 0.8453959924100347
vn -0.3757319966266781 0.3796459965915382 -0.8453959924100347
vn 0.9179941824123472 -0.012170002418270997 -0.39640707876906744
vn -0.9179941824123472 0.012170002418270997 0.39640707876906744
vn 0.15529597500340658 -0.9240088512706233 0.3494149437578257
vn -0.15529597500340658 0.9240088512706233 -0.3494149437578257
vn 0.9170967079987474 -0.04585498539988961 -0.3960188739086007
vn -0.9170967079987474 0.04585498539988961 0.3960188739086007
vn -0.3306778502310754 -0.4094108145717429 -0.8503146148798434
vn 0.3306778502310754 0.4094108145717429 0.8503146148798434
vn -0.15255505766505992 -0.9267723503153807 -0.3432491297464793
vn 0.15255505766505992 0.9267723503153807 0.3432491297464793
vn -0.14056903559412257 -0.9217292333952365 -0.36146309152770756
vn 0.14056903559412257 0.9217292333952365 0.36146309152770756
usemtl material_0_0
f 1//1 2//1 3//1
f 3//2 2//2 1//2
f 1//3 4//3 2//3
f 2//4 4//4 1//4
f 3//5 2//5 5//5
f 5//6 2//6 3//6
f 3//7 6//7 1//7
f 1//8 6//8 3//8
f 1//9 7//9 4//9
f 4//10 7//10 1//10
f 8//11 2//11 4//11
f 4//12 2//12 8//12
f 9//13 5//13 2//13
f 2//14 5//14 9//14
f 3//15 5//15 10//15
f 10//16 5//16 3//16
f 6//17 3//17 10//17
f 10//18 3//18 6//18
f 6//19 7//19 1//19
f 1//20 7//20 6//20
f 7//21 8//21 4//21
f 4//22 8//22 7//22
f 8//23 11//23 2//23
f 2//24 11//24 8//24
f 12//25 5//25 9//25
f 9//26 5//26 12//26
f 9//27 2//27 11//27
f 11//28 2//28 9//28
f 10//29 5//29 13//29
f 13//30 5//30 10//30
f 14//28 6//28 10//28
f 10//27 6//27 14//27
f 15//31 5//31 12//31
f 12//32 5//32 15//32
f 5//33 15//33 13//33
f 13//34 15//34 5//34
f 16//35 10//35 13//35
f 13//36 10//36 16//36
f 14//24 10//24 16//24
f 16//23 10//23 14//23
f 16//37 15//37 12//37
f 12//38 15//38 16//38
f 13//39 15//39 16//39
f 16//40 15//40 13//40
