# SSTK version 0.8.0
# 9
mtllib original-9.mtl
o mesh7/mesh7-geometry#mesh7-geometry
v -0.013914 -0.485234 0.055231
v -0.024127 -0.485234 0.078210
v -0.008808 -0.485234 0.064167
v -0.033063 -0.485234 0.073103
v -0.024127 -0.177577 0.078210
v 0.011617 -0.485234 0.057784
v -0.013914 -0.842679 0.055231
v -0.039446 -0.485234 0.098635
v -0.008808 -0.177577 0.064167
v -0.029233 -0.485234 0.098635
v 0.011617 -0.485234 0.047571
v 0.011617 -0.842679 0.047571
v -0.033063 -0.842679 0.073103
v -0.029233 -0.176300 0.098635
v 0.011617 -0.177577 0.057784
v 0.032043 -0.485234 0.064167
v -0.039446 -0.842679 0.098635
v -0.033063 -0.485234 0.124167
v -0.024127 -0.175024 0.119060
v 0.037149 -0.842679 0.055231
v 0.037149 -0.485234 0.055231
v -0.024127 -0.485234 0.119060
v 0.032043 -0.177577 0.064167
v 0.047362 -0.485234 0.078210
v -0.033063 -0.842679 0.124167
v -0.013914 -0.485234 0.143316
v -0.008808 -0.175024 0.134379
v 0.056298 -0.842679 0.073103
v 0.056298 -0.485234 0.073103
v -0.008808 -0.485234 0.134379
v 0.047362 -0.177577 0.078210
v 0.052468 -0.485234 0.098635
v -0.013914 -0.842679 0.143316
v 0.011617 -0.485234 0.149698
v 0.011617 -0.485234 0.139486
v 0.052468 -0.176300 0.098635
v 0.062681 -0.842679 0.098635
v 0.062681 -0.485234 0.098635
v 0.011617 -0.173747 0.139486
v 0.047362 -0.485234 0.119060
v 0.011617 -0.842679 0.149698
v 0.037149 -0.485234 0.143316
v 0.056298 -0.842679 0.124167
v 0.047362 -0.175024 0.119060
v 0.056298 -0.485234 0.124167
v 0.032043 -0.485234 0.134379
v 0.037149 -0.842679 0.143316
vn 0 1 0
vn 0 -1 0
vn -0.6757249002153736 0 -0.7371538911441244
vn 0.6757249002153736 0 0.7371538911441244
vn -0.682318250360011 0 -0.7310552682428689
vn 0.682318250360011 0 0.7310552682428689
vn -0.9701424413218077 0 -0.24253586033030797
vn 0.9701424413218077 0 0.24253586033030797
vn -0.29827499313594685 0 -0.9544799780350298
vn 0.29827499313594685 0 0.9544799780350298
vn -0.2873480690526228 0 -0.957826230175249
vn 0.2873480690526228 0 0.957826230175249
vn -0.9701424413218077 0 0.24253586033030797
vn 0.9701424413218077 0 -0.24253586033030797
vn 0.29827499313594685 0 -0.9544799780350298
vn -0.29827499313594685 0 0.9544799780350298
vn 0.2873480690526228 0 -0.957826230175249
vn -0.2873480690526228 0 0.957826230175249
vn -0.7071067811865476 0 0.7071067811865476
vn 0.7071067811865476 0 -0.7071067811865476
vn 0.6757249002153736 0 -0.7371538911441244
vn -0.6757249002153736 0 0.7371538911441244
vn 0.682318250360011 0 -0.7310552682428689
vn -0.682318250360011 0 0.7310552682428689
vn -0.24253586033030797 0 0.9701424413218077
vn 0.24253586033030797 0 -0.9701424413218077
vn 0.24253586033030797 0 0.9701424413218077
vn -0.24253586033030797 0 -0.9701424413218077
vn 0.7071067811865476 0 0.7071067811865476
vn -0.7071067811865476 0 -0.7071067811865476
usemtl material_0_0
f 1//1 2//1 3//1
f 3//2 2//2 1//2
f 1//1 4//1 2//1
f 2//2 4//2 1//2
f 5//3 3//3 2//3
f 2//4 3//4 5//4
f 1//1 3//1 6//1
f 6//2 3//2 1//2
f 4//5 1//5 7//5
f 7//6 1//6 4//6
f 4//1 8//1 2//1
f 2//2 8//2 4//2
f 5//3 9//3 3//3
f 3//4 9//4 5//4
f 5//7 2//7 10//7
f 10//8 2//8 5//8
f 9//9 6//9 3//9
f 3//10 6//10 9//10
f 11//1 1//1 6//1
f 6//2 1//2 11//2
f 1//11 12//11 7//11
f 7//12 12//12 1//12
f 4//5 7//5 13//5
f 13//6 7//6 4//6
f 4//7 13//7 8//7
f 8//8 13//8 4//8
f 2//1 8//1 10//1
f 10//2 8//2 2//2
f 14//7 5//7 10//7
f 10//8 5//8 14//8
f 9//9 15//9 6//9
f 6//10 15//10 9//10
f 1//11 11//11 12//11
f 12//12 11//12 1//12
f 11//1 6//1 16//1
f 16//2 6//2 11//2
f 8//7 13//7 17//7
f 17//8 13//8 8//8
f 8//1 18//1 10//1
f 10//2 18//2 8//2
f 19//13 14//13 10//13
f 10//14 14//14 19//14
f 15//15 16//15 6//15
f 6//16 16//16 15//16
f 11//17 20//17 12//17
f 12//18 20//18 11//18
f 11//1 16//1 21//1
f 21//2 16//2 11//2
f 8//13 17//13 18//13
f 18//14 17//14 8//14
f 10//1 18//1 22//1
f 22//2 18//2 10//2
f 19//13 10//13 22//13
f 22//14 10//14 19//14
f 15//15 23//15 16//15
f 16//16 23//16 15//16
f 11//17 21//17 20//17
f 20//18 21//18 11//18
f 21//1 16//1 24//1
f 24//2 16//2 21//2
f 18//13 17//13 25//13
f 25//14 17//14 18//14
f 22//1 18//1 26//1
f 26//2 18//2 22//2
f 22//19 27//19 19//19
f 19//20 27//20 22//20
f 23//21 24//21 16//21
f 16//22 24//22 23//22
f 21//23 28//23 20//23
f 20//24 28//24 21//24
f 21//1 24//1 29//1
f 29//2 24//2 21//2
f 25//19 26//19 18//19
f 18//20 26//20 25//20
f 22//1 26//1 30//1
f 30//2 26//2 22//2
f 22//19 30//19 27//19
f 27//20 30//20 22//20
f 23//21 31//21 24//21
f 24//22 31//22 23//22
f 21//23 29//23 28//23
f 28//24 29//24 21//24
f 29//1 24//1 32//1
f 32//2 24//2 29//2
f 26//19 25//19 33//19
f 33//20 25//20 26//20
f 30//1 26//1 34//1
f 34//2 26//2 30//2
f 30//25 35//25 27//25
f 27//26 35//26 30//26
f 36//14 24//14 31//14
f 31//13 24//13 36//13
f 29//14 37//14 28//14
f 28//13 37//13 29//13
f 36//14 32//14 24//14
f 24//13 32//13 36//13
f 29//1 32//1 38//1
f 38//2 32//2 29//2
f 33//25 34//25 26//25
f 26//26 34//26 33//26
f 30//1 34//1 35//1
f 35//2 34//2 30//2
f 27//25 35//25 39//25
f 39//26 35//26 27//26
f 38//14 37//14 29//14
f 29//13 37//13 38//13
f 36//8 40//8 32//8
f 32//7 40//7 36//7
f 32//1 40//1 38//1
f 38//2 40//2 32//2
f 33//25 41//25 34//25
f 34//26 41//26 33//26
f 35//1 34//1 42//1
f 42//2 34//2 35//2
f 38//8 43//8 37//8
f 37//7 43//7 38//7
f 44//8 40//8 36//8
f 36//7 40//7 44//7
f 38//1 40//1 45//1
f 45//2 40//2 38//2
f 41//27 42//27 34//27
f 34//28 42//28 41//28
f 46//1 35//1 42//1
f 42//2 35//2 46//2
f 45//8 43//8 38//8
f 38//7 43//7 45//7
f 40//1 46//1 45//1
f 45//2 46//2 40//2
f 41//27 47//27 42//27
f 42//28 47//28 41//28
f 45//1 46//1 42//1
f 42//2 46//2 45//2
f 45//29 47//29 43//29
f 43//30 47//30 45//30
f 47//29 45//29 42//29
f 42//30 45//30 47//30
