# SSTK version 0.8.0
# 26
mtllib original-26.mtl
o mesh24/mesh24-geometry#mesh24-geometry
v 0.009064 -0.829913 -0.419660
v 0.033319 -0.829913 -0.428596
v 0.037149 -0.860551 -0.417106
v 0.037149 -0.799275 -0.417106
v 0.049915 -0.873317 -0.389021
v 0.014171 -0.860551 -0.406894
v 0.014171 -0.799275 -0.406894
v 0.061404 -0.860551 -0.360937
v 0.049915 -0.786509 -0.389021
v 0.066511 -0.829913 -0.348171
v 0.025660 -0.873317 -0.378809
v 0.025660 -0.786509 -0.378809
v 0.061404 -0.799275 -0.360937
v 0.042256 -0.829913 -0.339235
v 0.037149 -0.860551 -0.350724
v 0.037149 -0.799275 -0.350724
vn -0.3215209565390507 -0.36745195033042094 -0.872698882034682
vn 0.3215209565390507 0.36745195033042094 0.872698882034682
vn -0.3215209565390507 0.36745195033042094 -0.872698882034682
vn 0.3215209565390507 -0.36745195033042094 0.872698882034682
vn 0.9006169390737163 -0.049348996661565156 -0.43180297078874585
vn -0.9006169390737163 0.049348996661565156 0.43180297078874585
vn -0.3705819975799143 -0.4091839973278239 -0.8338089945548104
vn 0.3705819975799143 0.4091839973278239 0.8338089945548104
vn -0.3705819975799143 0.4091839973278239 -0.8338089945548104
vn 0.3705819975799143 -0.4091839973278239 0.8338089945548104
vn 0.9271676092040345 0.024300989757268632 -0.3738578424210089
vn -0.9271676092040345 -0.024300989757268632 0.3738578424210089
vn 0.9245522817901723 0.006117001864373755 -0.3810061161251572
vn -0.9245522817901723 -0.006117001864373755 0.3810061161251572
vn -0.15529597500340658 -0.9240088512706233 -0.3494149437578257
vn 0.15529597500340658 0.9240088512706233 0.3494149437578257
vn -0.15529597500340658 0.9240088512706233 -0.3494149437578257
vn 0.15529597500340658 -0.9240088512706233 0.3494149437578257
vn 0.9213316477763603 0.008397996789459038 -0.38868685140562814
vn -0.9213316477763603 -0.008397996789459038 0.38868685140562814
vn 0.15048902106161718 -0.9217431290021076 0.35741105002128826
vn -0.15048902106161718 0.9217431290021076 -0.35741105002128826
vn -0.15048902106161718 -0.9217431290021076 -0.35741105002128826
vn 0.15048902106161718 0.9217431290021076 0.35741105002128826
vn 0.9170967079987474 -0.04585498539988961 -0.3960188739086007
vn -0.9170967079987474 0.04585498539988961 0.3960188739086007
vn 0.9179941824123472 -0.012170002418270997 -0.39640707876906744
vn -0.9179941824123472 0.012170002418270997 0.39640707876906744
vn 0.31542210514313745 -0.4092971364355395 0.8561452853883732
vn -0.31542210514313745 0.4092971364355395 -0.8561452853883732
vn 0.31542210514313745 0.4092971364355395 0.8561452853883732
vn -0.31542210514313745 -0.4092971364355395 -0.8561452853883732
vn 0.3590140051969073 -0.37958300549465385 0.8526580123426513
vn -0.3590140051969073 0.37958300549465385 -0.8526580123426513
vn 0.3590140051969073 0.37958300549465385 0.8526580123426513
vn -0.3590140051969073 -0.37958300549465385 -0.8526580123426513
usemtl material_0_0
f 1//1 2//1 3//1
f 3//2 2//2 1//2
f 1//3 4//3 2//3
f 2//4 4//4 1//4
f 2//5 5//5 3//5
f 3//6 5//6 2//6
f 1//7 3//7 6//7
f 6//8 3//8 1//8
f 1//9 7//9 4//9
f 4//10 7//10 1//10
f 4//11 8//11 2//11
f 2//12 8//12 4//12
f 2//13 8//13 5//13
f 5//14 8//14 2//14
f 3//15 5//15 6//15
f 6//16 5//16 3//16
f 4//17 7//17 9//17
f 9//18 7//18 4//18
f 4//19 10//19 8//19
f 8//20 10//20 4//20
f 5//21 8//21 11//21
f 11//22 8//22 5//22
f 6//23 5//23 11//23
f 11//24 5//24 6//24
f 7//22 12//22 9//22
f 9//21 12//21 7//21
f 9//25 13//25 4//25
f 4//26 13//26 9//26
f 13//27 10//27 4//27
f 4//28 10//28 13//28
f 14//29 8//29 10//29
f 10//30 8//30 14//30
f 11//21 8//21 15//21
f 15//22 8//22 11//22
f 9//24 12//24 16//24
f 16//23 12//23 9//23
f 9//24 16//24 13//24
f 13//23 16//23 9//23
f 14//31 10//31 13//31
f 13//32 10//32 14//32
f 15//33 8//33 14//33
f 14//34 8//34 15//34
f 16//35 14//35 13//35
f 13//36 14//36 16//36
