# SSTK version 0.8.0
# 29
mtllib original-29.mtl
o mesh27/mesh27-geometry#mesh27-geometry
v 0.406083 -0.829913 -0.071151
v 0.411189 -0.799275 -0.059662
v 0.430338 -0.829913 -0.081364
v 0.422679 -0.873317 -0.031577
v 0.435445 -0.799275 -0.069875
v 0.435445 -0.860551 -0.069875
v 0.411189 -0.860551 -0.059662
v 0.422679 -0.786509 -0.031577
v 0.435445 -0.860551 -0.002215
v 0.446934 -0.786509 -0.040513
v 0.446934 -0.873317 -0.040513
v 0.439274 -0.829913 0.009274
v 0.435445 -0.799275 -0.002215
v 0.458423 -0.860551 -0.012428
v 0.463529 -0.829913 -0.000939
v 0.458423 -0.799275 -0.012428
vn -0.3590140051969073 0.37958300549465385 -0.8526580123426513
vn 0.3590140051969073 -0.37958300549465385 0.8526580123426513
vn -0.9197610053778427 0.006132000035853805 0.39243100229454403
vn 0.9197610053778427 -0.006132000035853805 -0.39243100229454403
vn -0.3590140051969073 -0.37958300549465385 -0.8526580123426513
vn 0.3590140051969073 0.37958300549465385 0.8526580123426513
vn -0.9277891882461258 -0.014828003008565044 0.37281007564223995
vn 0.9277891882461258 0.014828003008565044 -0.37281007564223995
vn -0.9255469084180635 0 0.3786329625346489
vn 0.9255469084180635 0 -0.3786329625346489
vn -0.15048902106161718 0.9217431290021076 -0.35741105002128826
vn 0.15048902106161718 -0.9217431290021076 0.35741105002128826
vn -0.15048902106161718 -0.9217431290021076 -0.35741105002128826
vn 0.15048902106161718 0.9217431290021076 0.35741105002128826
vn -0.9170700880497377 0 0.39872603828248626
vn 0.9170700880497377 0 -0.39872603828248626
vn -0.12976302125745545 0.9268801518392017 -0.35221405769883113
vn 0.12976302125745545 -0.9268801518392017 0.35221405769883113
vn -0.12976302125745545 -0.9268801518392017 -0.35221405769883113
vn 0.12976302125745545 0.9268801518392017 0.35221405769883113
vn 0.12821998807861895 -0.9286759136554323 0.3480239676421251
vn -0.12821998807861895 0.9286759136554323 -0.3480239676421251
vn -0.9329212648349275 -0.01824100517820256 0.3596181020873225
vn 0.9329212648349275 0.01824100517820256 -0.3596181020873225
vn 0.12821998807861895 0.9286759136554323 0.3480239676421251
vn -0.12821998807861895 -0.9286759136554323 -0.3480239676421251
vn 0.15755389840510386 -0.9216884056710828 0.3544957714118061
vn -0.15755389840510386 0.9216884056710828 -0.3544957714118061
vn 0.3610291731357333 -0.3666701758409417 0.8574444111974265
vn -0.3610291731357333 0.3666701758409417 -0.8574444111974265
vn -0.909588084423422 0.041345003837436715 0.4134490383742743
vn 0.909588084423422 -0.041345003837436715 -0.4134490383742743
vn 0.15755389840510386 0.9216884056710828 0.3544957714118061
vn -0.15755389840510386 -0.9216884056710828 -0.3544957714118061
vn 0.3757319966266781 -0.3796459965915382 0.8453959924100347
vn -0.3757319966266781 0.3796459965915382 -0.8453959924100347
vn 0.3610291731357333 0.3666701758409417 0.8574444111974265
vn -0.3610291731357333 -0.3666701758409417 -0.8574444111974265
vn 0.3757319966266781 0.3796459965915382 0.8453959924100347
vn -0.3757319966266781 -0.3796459965915382 -0.8453959924100347
usemtl material_0_0
f 1//1 2//1 3//1
f 3//2 2//2 1//2
f 2//3 1//3 4//3
f 4//4 1//4 2//4
f 2//1 5//1 3//1
f 3//2 5//2 2//2
f 1//5 3//5 6//5
f 6//6 3//6 1//6
f 1//7 7//7 4//7
f 4//8 7//8 1//8
f 8//9 2//9 4//9
f 4//10 2//10 8//10
f 5//11 2//11 8//11
f 8//12 2//12 5//12
f 1//5 6//5 7//5
f 7//6 6//6 1//6
f 6//13 4//13 7//13
f 7//14 4//14 6//14
f 8//15 4//15 9//15
f 9//16 4//16 8//16
f 5//17 8//17 10//17
f 10//18 8//18 5//18
f 6//19 11//19 4//19
f 4//20 11//20 6//20
f 11//21 9//21 4//21
f 4//22 9//22 11//22
f 8//23 9//23 12//23
f 12//24 9//24 8//24
f 10//25 8//25 13//25
f 13//26 8//26 10//26
f 11//27 14//27 9//27
f 9//28 14//28 11//28
f 9//29 15//29 12//29
f 12//30 15//30 9//30
f 8//31 12//31 13//31
f 13//32 12//32 8//32
f 10//33 13//33 16//33
f 16//34 13//34 10//34
f 9//35 14//35 15//35
f 15//36 14//36 9//36
f 13//37 12//37 15//37
f 15//38 12//38 13//38
f 13//39 15//39 16//39
f 16//40 15//40 13//40
