# SSTK version 0.8.0
# 21
mtllib original-21.mtl
o mesh19/mesh19-geometry#mesh19-geometry
v -0.320295 -0.829913 0.457356
v -0.315189 -0.860551 0.468845
v -0.303700 -0.873317 0.496930
v -0.292210 -0.860551 0.458633
v -0.280721 -0.873317 0.486718
v -0.315189 -0.799275 0.468845
v -0.297317 -0.829913 0.447143
v -0.292210 -0.860551 0.525015
v -0.267955 -0.860551 0.516079
v -0.292210 -0.799275 0.458633
v -0.303700 -0.786509 0.496930
v -0.287104 -0.829913 0.536504
v -0.264125 -0.829913 0.527568
v -0.280721 -0.786509 0.486718
v -0.292210 -0.799275 0.525015
v -0.267955 -0.799275 0.516079
vn -0.9277891882461258 -0.014828003008565044 0.37281007564223995
vn 0.9277891882461258 0.014828003008565044 -0.37281007564223995
vn -0.3757319966266781 -0.3796459965915382 -0.8453959924100347
vn 0.3757319966266781 0.3796459965915382 0.8453959924100347
vn -0.15755389840510386 -0.9216884056710828 -0.3544957714118061
vn 0.15755389840510386 0.9216884056710828 0.3544957714118061
vn -0.9197610053778427 0.006132000035853805 0.39243100229454403
vn 0.9197610053778427 -0.006132000035853805 -0.39243100229454403
vn 0.15755389840510386 -0.9216884056710828 0.3544957714118061
vn -0.15755389840510386 0.9216884056710828 -0.3544957714118061
vn -0.3757319966266781 0.3796459965915382 -0.8453959924100347
vn 0.3757319966266781 -0.3796459965915382 0.8453959924100347
vn -0.9255469084180635 0 0.3786329625346489
vn 0.9255469084180635 0 -0.3786329625346489
vn 0.12821998807861895 -0.9286759136554323 0.3480239676421251
vn -0.12821998807861895 0.9286759136554323 -0.3480239676421251
vn 0.3199210864097373 -0.37895410235438 0.8683572345407157
vn -0.3199210864097373 0.37895410235438 -0.8683572345407157
vn 0.3371230921354165 -0.36722310036171985 0.8668882369197206
vn -0.3371230921354165 0.36722310036171985 -0.8668882369197206
vn 0.3371230921354165 0.36722310036171985 0.8668882369197206
vn -0.3371230921354165 -0.36722310036171985 -0.8668882369197206
vn 0.3199210864097373 0.37895410235438 0.8683572345407157
vn -0.3199210864097373 -0.37895410235438 -0.8683572345407157
vn 0.12821998807861895 0.9286759136554323 0.3480239676421251
vn -0.12821998807861895 -0.9286759136554323 -0.3480239676421251
usemtl material_0_0
f 1//1 2//1 3//1
f 3//2 2//2 1//2
f 1//3 4//3 2//3
f 2//4 4//4 1//4
f 2//5 5//5 3//5
f 3//6 5//6 2//6
f 6//7 1//7 3//7
f 3//8 1//8 6//8
f 1//3 7//3 4//3
f 4//4 7//4 1//4
f 4//5 5//5 2//5
f 2//6 5//6 4//6
f 5//9 8//9 3//9
f 3//10 8//10 5//10
f 1//11 6//11 7//11
f 7//12 6//12 1//12
f 6//13 3//13 8//13
f 8//14 3//14 6//14
f 5//15 9//15 8//15
f 8//16 9//16 5//16
f 6//11 10//11 7//11
f 7//12 10//12 6//12
f 11//13 6//13 8//13
f 8//14 6//14 11//14
f 8//17 9//17 12//17
f 12//18 9//18 8//18
f 10//10 6//10 11//10
f 11//9 6//9 10//9
f 11//7 8//7 12//7
f 12//8 8//8 11//8
f 12//19 9//19 13//19
f 13//20 9//20 12//20
f 10//10 11//10 14//10
f 14//9 11//9 10//9
f 11//1 12//1 15//1
f 15//2 12//2 11//2
f 12//21 13//21 16//21
f 16//22 13//22 12//22
f 14//6 11//6 15//6
f 15//5 11//5 14//5
f 15//23 12//23 16//23
f 16//24 12//24 15//24
f 14//25 15//25 16//25
f 16//26 15//26 14//26
