# SSTK version 0.8.0
# 17
mtllib original-17.mtl
o mesh15/mesh15-geometry#mesh15-geometry
v 0.235020 -0.829913 0.457356
v 0.240127 -0.799275 0.468845
v 0.257999 -0.829913 0.447143
v 0.251616 -0.873317 0.496930
v 0.263105 -0.799275 0.458633
v 0.263105 -0.860551 0.458633
v 0.240127 -0.860551 0.468845
v 0.263105 -0.860551 0.525015
v 0.251616 -0.786509 0.496930
v 0.274594 -0.873317 0.486718
v 0.274594 -0.786509 0.486718
v 0.287360 -0.860551 0.516079
v 0.268212 -0.829913 0.536504
v 0.263105 -0.799275 0.525015
v 0.287360 -0.799275 0.516079
v 0.291190 -0.829913 0.527568
vn -0.3757319966266781 0.3796459965915382 -0.8453959924100347
vn 0.3757319966266781 -0.3796459965915382 0.8453959924100347
vn -0.9197610053778427 0.006132000035853805 0.39243100229454403
vn 0.9197610053778427 -0.006132000035853805 -0.39243100229454403
vn -0.3757319966266781 -0.3796459965915382 -0.8453959924100347
vn 0.3757319966266781 0.3796459965915382 0.8453959924100347
vn -0.9277891882461258 -0.014828003008565044 0.37281007564223995
vn 0.9277891882461258 0.014828003008565044 -0.37281007564223995
vn -0.9255469084180635 0 0.3786329625346489
vn 0.9255469084180635 0 -0.3786329625346489
vn -0.15755389840510386 0.9216884056710828 -0.3544957714118061
vn 0.15755389840510386 -0.9216884056710828 0.3544957714118061
vn -0.15755389840510386 -0.9216884056710828 -0.3544957714118061
vn 0.15755389840510386 0.9216884056710828 0.3544957714118061
vn 0.12821998807861895 -0.9286759136554323 0.3480239676421251
vn -0.12821998807861895 0.9286759136554323 -0.3480239676421251
vn 0.3199210864097373 -0.37895410235438 0.8683572345407157
vn -0.3199210864097373 0.37895410235438 -0.8683572345407157
vn 0.12821998807861895 0.9286759136554323 0.3480239676421251
vn -0.12821998807861895 -0.9286759136554323 -0.3480239676421251
vn 0.3371230921354165 -0.36722310036171985 0.8668882369197206
vn -0.3371230921354165 0.36722310036171985 -0.8668882369197206
vn 0.3199210864097373 0.37895410235438 0.8683572345407157
vn -0.3199210864097373 -0.37895410235438 -0.8683572345407157
vn 0.3371230921354165 0.36722310036171985 0.8668882369197206
vn -0.3371230921354165 -0.36722310036171985 -0.8668882369197206
usemtl material_0_0
f 1//1 2//1 3//1
f 3//2 2//2 1//2
f 2//3 1//3 4//3
f 4//4 1//4 2//4
f 2//1 5//1 3//1
f 3//2 5//2 2//2
f 1//5 3//5 6//5
f 6//6 3//6 1//6
f 1//7 7//7 4//7
f 4//8 7//8 1//8
f 2//9 4//9 8//9
f 8//10 4//10 2//10
f 5//11 2//11 9//11
f 9//12 2//12 5//12
f 1//5 6//5 7//5
f 7//6 6//6 1//6
f 7//13 10//13 4//13
f 4//14 10//14 7//14
f 10//12 8//12 4//12
f 4//11 8//11 10//11
f 9//9 2//9 8//9
f 8//10 2//10 9//10
f 5//11 9//11 11//11
f 11//12 9//12 5//12
f 6//13 10//13 7//13
f 7//14 10//14 6//14
f 10//15 12//15 8//15
f 8//16 12//16 10//16
f 9//3 8//3 13//3
f 13//4 8//4 9//4
f 11//14 9//14 14//14
f 14//13 9//13 11//13
f 8//17 12//17 13//17
f 13//18 12//18 8//18
f 9//7 13//7 14//7
f 14//8 13//8 9//8
f 11//19 14//19 15//19
f 15//20 14//20 11//20
f 13//21 12//21 16//21
f 16//22 12//22 13//22
f 14//23 13//23 15//23
f 15//24 13//24 14//24
f 13//25 16//25 15//25
f 15//26 16//26 13//26
