# SSTK version 0.8.0
# 25
mtllib original-25.mtl
o mesh23/mesh23-geometry#mesh23-geometry
v -0.013914 -0.860551 -0.329022
v 0.014171 -0.829913 -0.327745
v -0.010085 -0.829913 -0.317533
v 0.009064 -0.860551 -0.339235
v -0.013914 -0.799275 -0.329022
v -0.026680 -0.786509 -0.357107
v -0.026680 -0.873317 -0.357107
v 0.009064 -0.799275 -0.339235
v -0.002425 -0.873317 -0.367319
v -0.038169 -0.799275 -0.386468
v -0.013914 -0.860551 -0.395404
v -0.002425 -0.786509 -0.367319
v -0.013914 -0.799275 -0.395404
v -0.043276 -0.829913 -0.397958
v -0.038169 -0.860551 -0.386468
v -0.019021 -0.829913 -0.406894
vn 0.3610291731357333 -0.3666701758409417 0.8574444111974265
vn -0.3610291731357333 0.3666701758409417 -0.8574444111974265
vn 0.3757319966266781 -0.3796459965915382 0.8453959924100347
vn -0.3757319966266781 0.3796459965915382 -0.8453959924100347
vn 0.3610291731357333 0.3666701758409417 0.8574444111974265
vn -0.3610291731357333 -0.3666701758409417 -0.8574444111974265
vn -0.9300880350336266 -0.021259000800762796 0.36672101381328065
vn 0.9300880350336266 0.021259000800762796 -0.36672101381328065
vn 0.15529597500340658 -0.9240088512706233 0.3494149437578257
vn -0.15529597500340658 0.9240088512706233 -0.3494149437578257
vn -0.9006169390737163 0.049348996661565156 0.43180297078874585
vn 0.9006169390737163 -0.049348996661565156 -0.43180297078874585
vn 0.3757319966266781 0.3796459965915382 0.8453959924100347
vn -0.3757319966266781 -0.3796459965915382 -0.8453959924100347
vn -0.9103663747228083 0 0.4138031703286615
vn 0.9103663747228083 0 -0.4138031703286615
vn 0.15048902106161718 -0.9217431290021076 0.35741105002128826
vn -0.15048902106161718 0.9217431290021076 -0.35741105002128826
vn 0.15529597500340658 0.9240088512706233 0.3494149437578257
vn -0.15529597500340658 -0.9240088512706233 -0.3494149437578257
vn -0.9312429272466493 0 0.36439897153133144
vn 0.9312429272466493 0 -0.36439897153133144
vn -0.15048902106161718 -0.9217431290021076 -0.35741105002128826
vn 0.15048902106161718 0.9217431290021076 0.35741105002128826
vn -0.12976302125745545 0.9268801518392017 -0.35221405769883113
vn 0.12976302125745545 -0.9268801518392017 0.35221405769883113
vn -0.9228831599868855 0.009452001638556612 0.384964066735644
vn 0.9228831599868855 -0.009452001638556612 -0.384964066735644
vn -0.12976302125745545 -0.9268801518392017 -0.35221405769883113
vn 0.12976302125745545 0.9268801518392017 0.35221405769883113
vn -0.3199210864097373 0.37895410235438 -0.8683572345407157
vn 0.3199210864097373 -0.37895410235438 0.8683572345407157
vn -0.9342566588870738 -0.0222439918783419 0.35590687005237504
vn 0.9342566588870738 0.0222439918783419 -0.35590687005237504
vn -0.3199210864097373 -0.37895410235438 -0.8683572345407157
vn 0.3199210864097373 0.37895410235438 0.8683572345407157
usemtl material_0_0
f 1//1 2//1 3//1
f 3//2 2//2 1//2
f 1//3 4//3 2//3
f 2//4 4//4 1//4
f 5//5 3//5 2//5
f 2//6 3//6 5//6
f 6//7 1//7 3//7
f 3//8 1//8 6//8
f 7//9 4//9 1//9
f 1//10 4//10 7//10
f 6//11 3//11 5//11
f 5//12 3//12 6//12
f 5//13 2//13 8//13
f 8//14 2//14 5//14
f 6//15 7//15 1//15
f 1//16 7//16 6//16
f 9//17 4//17 7//17
f 7//18 4//18 9//18
f 6//19 5//19 8//19
f 8//20 5//20 6//20
f 6//21 10//21 7//21
f 7//22 10//22 6//22
f 11//23 9//23 7//23
f 7//24 9//24 11//24
f 12//24 6//24 8//24
f 8//23 6//23 12//23
f 13//25 10//25 6//25
f 6//26 10//26 13//26
f 10//27 14//27 7//27
f 7//28 14//28 10//28
f 11//29 7//29 15//29
f 15//30 7//30 11//30
f 13//18 6//18 12//18
f 12//17 6//17 13//17
f 10//31 13//31 16//31
f 16//32 13//32 10//32
f 14//31 10//31 16//31
f 16//32 10//32 14//32
f 14//33 15//33 7//33
f 7//34 15//34 14//34
f 14//35 11//35 15//35
f 15//36 11//36 14//36
f 14//35 16//35 11//35
f 11//36 16//36 14//36
