# SSTK version 0.8.0
# 14
mtllib original-14.mtl
o drawer_guides2/drawer_guides12/mesh11/mesh11-geometry#mesh11-geometry
v -0.043469 0.016660 0.341188
v -0.080109 0.002920 0.341188
v -0.043469 0.002920 0.341188
v -0.080109 0.016660 0.341188
v -0.051610 0.002920 -0.267951
v -0.043469 0.002920 -0.251674
v -0.080109 0.016660 -0.267951
v -0.080109 0.002920 -0.267951
v -0.043469 0.016660 -0.251674
v -0.051610 0.016660 -0.267951
vt 0.125 0.050781
vt 0 0
vt 0.125 0
vt 0 0.050781
vt 2.022595 0
vt -2.078125 0.050781
vt 2.022595 0.050781
vt -2.078125 0
vt -0.097228 0.050781
vt -0.097228 0
vt 1.815145 0
vt 1.753057 0.050781
vt 1.753057 0
vt 1.815145 0.050781
vt -0.097228 1.918269
vt -0.125 0
vt 0 1.918269
vt -0.125 1.86701
vt 0.097228 1.918269
vt 0.125 1.86701
vn 0 0 1
vn 1 0 0
vn -1 0 0
vn 0 0 -1
vn 0.8943809862278745 0 -0.44730599311215874
vn 0 1 0
vn 0 -1 0
vn -0.8943809862278745 0 0.44730599311215874
usemtl material_0_0
f 1/1/1 2/2/1 3/3/1
f 2/2/1 1/1/1 4/4/1
f 6/5/2 1/4/2 3/2/2
f 7/6/3 2/2/3 4/4/3
f 1/4/2 6/5/2 9/7/2
f 2/2/3 7/6/3 8/8/3
f 8/2/4 10/9/4 5/10/4
f 5/11/5 9/12/5 6/13/5
f 10/9/4 8/2/4 7/4/4
f 9/12/5 5/11/5 10/14/5
usemtl material_1_0
f 3//4 2//4 1//4
f 4//4 1//4 2//4
f 3//6 5//6 2//6
f 3//3 1//3 6//3
f 4//7 7//7 1//7
f 4//2 2//2 7//2
f 8//6 2//6 5//6
f 6//6 5//6 3//6
f 9//3 6//3 1//3
f 10//7 1//7 7//7
f 8//2 7//2 2//2
f 5//1 10//1 8//1
f 6//8 9//8 5//8
f 9//7 1//7 10//7
f 7//1 8//1 10//1
f 10//8 5//8 9//8
usemtl material_2_0
f 2/2/7 5/15/7 3/16/7
f 1/3/6 7/17/6 4/2/6
f 5/15/7 2/2/7 8/17/7
f 3/16/7 5/15/7 6/18/7
f 7/17/6 1/3/6 10/19/6
f 10/19/6 1/3/6 9/20/6
