# SSTK version 0.8.0
# 15
mtllib original-15.mtl
o drawer_back1/drawer_back/mesh12/mesh12-geometry#mesh12-geometry
v 0.203850 0.025820 -0.249631
v 0.203850 0.108260 -0.231311
v 0.203850 0.025820 -0.231311
v 0.203850 0.108260 -0.249631
v -0.254149 0.025820 -0.231311
v -0.254149 0.025820 -0.249631
v -0.254149 0.108260 -0.249631
v -0.254149 0.108260 -0.231311
vt 0.0625 0
vt 0 0.304687
vt 0 0
vt 0.0625 0.304687
vt 1.5625 0.304687
vt 1.5625 0
vt -1.5625 0.067708
vt -1.5625 0
vt -1.5625 0.304687
vt 0 0.067708
vt 1.5625 0.067708
vt -0.0625 0.304687
vt -0.0625 0
vn 1 0 0
vn -1 0 0
vn 0 0 1
vn 0 0 -1
vn 0 -1 0
vn 0 1 0
usemtl material_0_0
f 1/1/1 2/2/1 3/3/1
f 2/2/1 1/1/1 4/4/1
f 3/3/2 2/2/2 1/1/2
f 4/4/2 1/1/2 2/2/2
f 2/5/3 5/3/3 3/6/3
f 3/6/4 5/3/4 2/5/4
f 5/3/5 1/7/5 3/8/5
f 3/8/6 1/7/6 5/3/6
f 6/3/4 4/9/4 1/8/4
f 1/8/3 4/9/3 6/3/3
f 7/10/6 2/6/6 4/11/6
f 4/11/5 2/6/5 7/10/5
f 5/3/3 2/5/3 8/2/3
f 8/2/4 2/5/4 5/3/4
f 1/7/5 5/3/5 6/10/5
f 6/10/6 5/3/6 1/7/6
f 4/9/4 6/3/4 7/2/4
f 7/2/3 6/3/3 4/9/3
f 2/6/6 7/10/6 8/3/6
f 8/3/5 7/10/5 2/6/5
f 7/12/2 5/3/2 8/2/2
f 8/2/1 5/3/1 7/12/1
f 5/3/2 7/12/2 6/13/2
f 6/13/1 7/12/1 5/3/1
