# SSTK version 0.8.0
# 10
mtllib original-10.mtl
o drawer_sides1/drawer_sides/mesh7/mesh7-geometry#mesh7-geometry
v -0.263309 0.108260 -0.267951
v -0.263309 0.101749 0.341188
v -0.263309 0.108260 0.341188
v -0.263309 0.076807 0.341188
v -0.244989 0.101749 0.341188
v -0.244989 0.108260 0.341188
v -0.263309 0.063785 0.341188
v -0.263309 0.074876 0.354928
v -0.244989 0.103680 0.354928
v -0.254149 0.108260 -0.231311
v -0.263309 0.038842 0.341188
v -0.244989 0.063785 0.341188
v -0.263309 0.103680 0.354928
v -0.244989 0.076807 0.341188
v -0.244989 0.074876 0.354928
v -0.244989 0.108260 -0.231311
v -0.254149 0.108260 -0.249631
v -0.263309 0.025820 0.341188
v -0.263309 0.036911 0.354928
v -0.244989 0.065716 0.354928
v -0.244989 0.025820 -0.231311
v -0.244989 0.108260 -0.267951
v -0.254149 0.016660 -0.249631
v -0.263309 0.002920 -0.267951
v -0.244989 0.025820 0.341188
v -0.263309 0.065716 0.354928
v -0.244989 0.038842 0.341188
v -0.244989 0.036911 0.354928
v -0.254149 0.025820 -0.231311
v -0.244989 0.108260 -0.249631
v -0.244989 0.025820 -0.267951
v -0.254149 0.002920 -0.249631
v -0.254149 0.025820 -0.249631
v -0.263309 0.002920 0.354928
v -0.254149 0.016660 -0.267951
v -0.254149 0.025820 0.341188
v -0.244989 0.025820 -0.249631
v -0.254149 0.025820 -0.267951
v -0.244989 0.002920 -0.249631
v -0.263309 0.027751 0.354928
v -0.244989 0.002920 -0.267951
v -0.244989 0.027751 0.354928
v -0.254149 0.025820 0.354928
v -0.254149 0.016660 -0.231311
v -0.244989 0.016660 -0.249631
v -0.244989 0.016660 -0.267951
v -0.244989 0.002920 0.354928
v -0.254149 0.002920 -0.231311
v -0.244989 0.025820 0.354928
v -0.254149 0.016660 0.354928
v -0.244989 0.016660 -0.231311
v -0.244989 0.002920 -0.231311
v -0.244989 0.016660 0.354928
vt -2.125 0.389323
vt -0.046875 0.365259
vt -0.046875 0.389323
vt -0.046875 0.273075
vt 0.0625 0.365259
vt 0 0.389323
vt 0 0.365259
vt -0.046875 0.224947
vt 0 0.265938
vt 0.0625 0.389323
vt 0 0.000547
vt -0.0625 0.051827
vt -0.0625 0.000547
vt -0.046875 0.132763
vt 0.0625 0.224947
vt 0 0.273075
vt 0 0.224947
vt 0 0.372396
vt -0.0625 0.088292
vt 0 0.037011
vt 0 0.088292
vt 0.046875 0.365259
vt 0.046875 0.273075
vt 0.046875 0.389323
vt 0 0.051827
vt -0.046875 0.084635
vt 0 0.125626
vt 0.0625 0.273075
vt 0 -0.01898
vt -0.0625 0.0323
vt -0.0625 -0.01898
vt 0.0625 0.265938
vt -0.0625 0.037011
vt 2 0.389323
vt 0.0625 0.372396
vt -0.0625 0.084635
vt -0.03125 0.389323
vt -0.0625 0.389323
vt 2.0625 0.050781
vt 2.0625 0.389323
vt -2.125 0
vt 0 0.084635
vt 0.0625 0.084635
vt 0 0.132763
vt 0 0.232084
vt -0.0625 0.068764
vt 0 0.017484
vt 0 0.068764
vt 0.046875 0.224947
vt 0.046875 0.132763
vt 0 0.0323
vt -0.03125 0.084635
vt 2 0.084635
vt 2.0625 0
vt 2.0625 0.084635
vt 0 0
vt -0.03125 0.050781
vt 0.03125 0.084635
vt 0.0625 0.132763
vt 0.0625 0.125626
vt -0.0625 0.017484
vt 0.0625 0.232084
vt -0.0625 2.166667
vt -0.03125 2.166667
vt 0.046875 0.084635
vt 0.03125 0.389323
vt 2.125 0.084635
vt 2.125 0.389323
vt 0.0625 0
vt 0.03125 0.050781
vt 0.03125 0
vt 2.125 0.050781
vt 0 0.091772
vt -0.0625 0
vt 0 -0.038508
vt -0.0625 0.012772
vt -0.03125 -0.038508
vt -0.0625 0.050781
vt -0.0625 -0.038508
vt -0.03125 0
vt 2 0.050781
vt -0.0625 2.302083
vt -0.03125 2.234375
vt -0.03125 2.302083
vt 0.0625 0.050781
vt 0.03125 2.234375
vt 0.0625 2.302083
vt 0.03125 2.302083
vt -0.0625 2.234375
vt 0 0.012772
vt 0 0.050781
vt 2 0
vt 2.125 0
vt 0.0625 2.234375
vt 0.0625 0.091772
vt 0.0625 2.166667
vt 0.03125 2.166667
vt 0.0625 0.043269
vt 0 1.961538
vt 0 0.043269
vt 0.03125 1.846154
vt 0.0625 1.846154
vt 0.03125 1.903846
vt 0.0625 1.961538
vt 0.0625 1.903846
vt -0.03125 1.903846
vt -0.0625 1.961538
vt -0.0625 1.903846
vt -0.03125 1.846154
vt -0.0625 1.846154
vn -1 0 0
vn 0 0 1
vn 0 0.990268081324284 -0.13917301142937502
vn 0 -0.990268081324284 -0.13917301142937546
vn 1 0 0
vn 0 0 -1
vn 0 -1 0
vn 0 1 0
vn 0 -0.990268081324284 0.13917301142937502
vn 0 0.990268081324284 0.13917301142937546
usemtl material_0_0
f 1/1/1 2/2/1 3/3/1
f 2/2/1 1/1/1 4/4/1
f 5/5/2 3/6/2 2/7/2
f 4/4/1 1/1/1 7/8/1
f 8/9/1 2/2/1 4/4/1
f 3/6/2 5/5/2 6/10/2
f 2/11/3 9/12/3 5/13/3
f 7/8/1 1/1/1 11/14/1
f 12/15/2 4/16/2 7/17/2
f 2/2/1 8/9/1 13/18/1
f 14/19/4 8/20/4 4/21/4
f 5/22/5 14/23/5 6/24/5
f 9/12/3 2/11/3 13/25/3
f 15/9/5 5/22/5 9/18/5
f 11/14/1 1/1/1 18/26/1
f 19/27/1 7/8/1 11/14/1
f 4/16/2 12/15/2 14/28/2
f 7/29/3 20/30/3 12/31/3
f 15/32/2 13/18/2 8/9/2
f 8/20/4 14/19/4 15/33/4
f 5/22/5 15/9/5 14/23/5
f 6/24/5 14/23/5 16/34/5
f 13/18/2 15/32/2 9/35/2
f 21/36/6 10/37/6 16/38/6
f 10/34/5 23/39/5 17/40/5
f 24/41/1 18/26/1 1/1/1
f 18/42/2 25/43/2 11/44/2
f 7/8/1 19/27/1 26/45/1
f 27/46/4 19/47/4 11/48/4
f 12/49/5 27/50/5 14/23/5
f 20/30/3 7/29/3 26/51/3
f 28/27/5 12/49/5 20/45/5
f 16/34/5 14/23/5 27/50/5
f 10/37/6 21/36/6 29/52/6
f 16/34/5 27/50/5 21/53/5
f 31/36/6 1/6/6 22/38/6
f 10/34/5 32/54/5 23/39/5
f 17/40/5 23/39/5 33/55/5
f 34/56/1 18/26/1 24/41/1
f 35/57/6 24/56/6 1/6/6
f 25/43/2 18/42/2 36/58/2
f 11/44/2 25/43/2 27/59/2
f 28/60/2 26/45/2 19/27/2
f 19/47/4 27/46/4 28/61/4
f 12/49/5 28/27/5 27/50/5
f 26/45/2 28/60/2 20/62/2
f 21/63/7 36/57/7 29/64/7
f 29/53/5 32/54/5 10/34/5
f 21/53/5 27/50/5 25/65/5
f 17/66/2 37/43/2 30/10/2
f 30/40/5 31/67/5 22/68/5
f 38/52/6 1/6/6 31/36/6
f 39/69/2 23/70/2 32/71/2
f 35/72/5 33/55/5 23/39/5
f 37/43/2 17/66/2 33/58/2
f 18/26/1 34/56/1 40/73/1
f 24/56/6 35/57/6 41/74/6
f 35/57/6 1/6/6 38/52/6
f 18/75/3 42/76/3 36/77/3
f 36/57/7 21/63/7 25/78/7
f 36/77/3 42/76/3 25/79/3
f 25/78/7 43/80/7 36/57/7
f 36/65/5 44/81/5 29/53/5
f 44/81/5 32/54/5 29/53/5
f 31/67/5 30/40/5 37/55/5
f 31/82/7 33/83/7 38/84/7
f 23/70/2 39/69/2 45/85/2
f 33/55/5 35/72/5 38/67/5
f 23/86/8 46/87/8 35/88/8
f 33/83/7 31/82/7 37/89/7
f 47/69/2 40/73/2 34/56/2
f 42/76/3 18/75/3 40/90/3
f 46/78/6 41/74/6 35/57/6
f 25/65/5 42/73/5 49/42/5
f 43/80/7 25/78/7 49/74/7
f 50/91/5 36/65/5 43/42/5
f 36/65/5 50/91/5 44/81/5
f 32/54/5 44/81/5 48/92/5
f 41/93/5 45/39/5 39/54/5
f 46/87/8 23/86/8 45/94/8
f 40/73/2 47/69/2 50/70/2
f 40/73/2 49/43/2 42/95/2
f 45/39/5 41/93/5 46/72/5
f 40/73/2 43/58/2 49/43/2
f 40/73/2 50/70/2 43/58/2
f 50/71/8 51/96/8 44/97/8
f 44/57/6 52/74/6 48/80/6
f 53/85/2 50/70/2 47/69/2
f 51/96/8 50/71/8 53/69/8
f 52/74/6 44/57/6 51/78/6
f 52/92/5 53/91/5 47/56/5
f 53/91/5 52/92/5 51/81/5
usemtl material_1_0
f 3//5 2//5 1//5
f 4//5 1//5 2//5
f 2//6 3//6 5//6
f 3//7 1//7 6//7
f 7//5 1//5 4//5
f 4//5 2//5 8//5
f 6//6 5//6 3//6
f 5//9 9//9 2//9
f 10//7 6//7 1//7
f 11//5 1//5 7//5
f 7//6 4//6 12//6
f 13//5 8//5 2//5
f 4//10 8//10 14//10
f 6//1 14//1 5//1
f 13//9 2//9 9//9
f 9//1 5//1 15//1
f 16//7 6//7 10//7
f 10//7 1//7 17//7
f 18//5 1//5 11//5
f 11//5 7//5 19//5
f 14//6 12//6 4//6
f 12//9 20//9 7//9
f 8//6 13//6 15//6
f 15//10 14//10 8//10
f 14//1 15//1 5//1
f 16//1 14//1 6//1
f 9//6 15//6 13//6
f 16//2 10//2 21//2
f 22//7 17//7 1//7
f 17//1 23//1 10//1
f 1//5 18//5 24//5
f 11//6 25//6 18//6
f 26//5 19//5 7//5
f 11//10 19//10 27//10
f 14//1 27//1 12//1
f 26//9 7//9 20//9
f 20//1 12//1 28//1
f 27//1 14//1 16//1
f 29//2 21//2 10//2
f 21//1 27//1 16//1
f 30//7 17//7 22//7
f 22//2 1//2 31//2
f 23//1 32//1 10//1
f 33//1 23//1 17//1
f 24//5 18//5 34//5
f 1//2 24//2 35//2
f 36//6 18//6 25//6
f 27//6 25//6 11//6
f 19//6 26//6 28//6
f 28//10 27//10 19//10
f 27//1 28//1 12//1
f 20//6 28//6 26//6
f 29//8 36//8 21//8
f 10//1 32//1 29//1
f 25//1 27//1 21//1
f 30//6 37//6 17//6
f 22//1 31//1 30//1
f 31//2 1//2 38//2
f 32//6 23//6 39//6
f 23//1 33//1 35//1
f 33//6 17//6 37//6
f 40//5 34//5 18//5
f 34//8 32//8 24//8
f 41//2 35//2 24//2
f 38//2 1//2 35//2
f 36//9 42//9 18//9
f 25//8 21//8 36//8
f 25//9 42//9 36//9
f 36//8 43//8 25//8
f 29//1 44//1 36//1
f 29//1 32//1 44//1
f 37//1 30//1 31//1
f 38//8 33//8 31//8
f 45//6 39//6 23//6
f 39//8 41//8 32//8
f 38//1 35//1 33//1
f 35//7 46//7 23//7
f 37//8 31//8 33//8
f 34//6 40//6 47//6
f 40//9 18//9 42//9
f 41//8 24//8 32//8
f 48//8 32//8 34//8
f 35//2 41//2 46//2
f 49//1 42//1 25//1
f 49//8 25//8 43//8
f 43//1 36//1 50//1
f 44//1 50//1 36//1
f 48//1 44//1 32//1
f 39//1 45//1 41//1
f 45//7 23//7 46//7
f 50//6 47//6 40//6
f 34//8 47//8 48//8
f 42//6 49//6 40//6
f 46//1 41//1 45//1
f 49//6 43//6 40//6
f 43//6 50//6 40//6
f 44//7 51//7 50//7
f 48//2 52//2 44//2
f 47//6 50//6 53//6
f 52//8 48//8 47//8
f 53//7 50//7 51//7
f 51//2 44//2 52//2
f 47//1 53//1 52//1
f 51//1 52//1 53//1
usemtl material_2_0
f 6/98/8 1/99/8 3/100/8
f 1/99/8 6/98/8 10/101/8
f 10/101/8 6/98/8 16/102/8
f 17/103/8 1/99/8 10/101/8
f 1/99/8 17/103/8 22/104/8
f 22/104/8 17/103/8 30/105/8
f 24/99/7 32/106/7 34/56/7
f 32/106/7 41/107/7 39/108/7
f 32/106/7 24/99/7 41/107/7
f 34/56/7 32/106/7 48/109/7
f 48/109/7 47/74/7 34/56/7
f 47/74/7 48/109/7 52/110/7
