# SSTK version 0.8.0
# 26
mtllib original-26.mtl
o top1/top/mesh31/mesh31-geometry#mesh31-geometry
v 0.506523 0.138843 -0.364524
v 0.506130 0.140320 0.377827
v 0.506523 0.138843 0.378220
v 0.506130 0.140320 -0.364131
v -0.556821 0.138843 0.378220
v 0.507106 0.137430 -0.365107
v -0.556428 0.138843 -0.364524
v -0.556428 0.140320 -0.364131
v -0.556428 0.140320 0.377827
v -0.557405 0.137430 0.378804
v 0.507106 0.137430 0.378804
v -0.556428 0.137430 -0.365107
v -0.556821 0.138843 -0.364524
v -0.557405 0.137430 -0.365107
v 0.507869 0.136105 -0.365871
v -0.558168 0.136105 -0.365871
v -0.558168 0.136105 0.379567
v 0.507869 0.136105 0.379567
v -0.556428 0.136105 -0.365871
v 0.508800 0.134892 -0.366801
v -0.559098 0.134892 -0.366801
v -0.559098 0.134892 0.380497
v 0.508800 0.134892 0.380497
v -0.556428 0.134892 -0.366801
v 0.509881 0.133812 0.381579
v -0.556428 0.133812 -0.367882
v -0.560180 0.133812 -0.367882
v 0.509881 0.133812 -0.367882
v -0.560180 0.133812 0.381579
v 0.511094 0.132882 0.382792
v -0.556428 0.132882 -0.369096
v -0.561393 0.132882 -0.369096
v 0.511094 0.132882 -0.369096
v -0.561393 0.132882 0.382792
v 0.512419 0.132119 0.384117
v -0.556428 0.132119 -0.370421
v -0.562718 0.132119 -0.370421
v 0.512419 0.132119 -0.370421
v -0.562718 0.132119 0.384117
v 0.513833 0.131537 0.385530
v -0.556428 0.131537 -0.371834
v -0.564131 0.131537 -0.371834
v 0.513833 0.131537 -0.371834
v -0.564131 0.131537 0.385530
v 0.515310 0.131145 0.387008
v -0.556428 0.131145 -0.373312
v -0.565609 0.131145 -0.373312
v 0.515310 0.131145 -0.373312
v -0.565609 0.131145 0.387008
v 0.516826 0.130950 0.388524
v -0.556428 0.130950 -0.374828
v -0.567125 0.130950 -0.374828
v 0.516826 0.130950 -0.374828
v -0.567125 0.130950 0.388524
v 0.518355 0.130955 0.390053
v -0.556428 0.130955 -0.376356
v -0.568654 0.130955 -0.376356
v 0.518355 0.130955 -0.376356
v -0.568654 0.130955 0.390053
v 0.519870 0.131160 0.391567
v -0.556428 0.131160 -0.377871
v -0.565609 0.131145 -0.377871
v -0.570168 0.131160 -0.377871
v 0.519870 0.131160 -0.377871
v -0.570168 0.131160 0.391567
v 0.519870 0.112840 -0.377871
v -0.570168 0.112840 0.391567
v -0.570168 0.112840 -0.377871
v 0.519870 0.112840 0.391567
v -0.567125 0.130950 -0.377871
v -0.568654 0.130955 -0.377871
vt 1.037204 1.447195
vt 1.035714 0
vt 1.037204 -0.000766
vt 1.035714 1.446429
vt -0.000383 -0.00298
vt 1.036097 -0.00298
vt 1.038694 1.448332
vt 0 1.449409
vt 1.036097 1.449409
vt 0 1.446429
vt 0 0
vt -0.000952 -0.00596
vt 1.038694 -0.001903
vt -0.026786 0.884679
vt -1.062883 0.887659
vt -1.063452 0.884679
vt -0.026786 0.887659
vt -0.00149 1.447195
vt -0.00149 -0.000766
vt 1.036666 -0.00596
vt -0.00298 1.448332
vt -0.00298 -0.001903
vt 1.040184 1.44982
vt -0.02509 0.881699
vt -0.001696 -0.00894
vt -0.00447 1.44982
vt 1.040184 -0.003391
vt -0.026786 0.881699
vt -1.064196 0.881699
vt -0.025834 0.884679
vt 1.03741 -0.00894
vt -0.00447 -0.003391
vt 1.041675 1.451633
vt -0.024183 0.878718
vt -0.002602 -0.01192
vt -0.752602 1.144147
vt -0.02509 1.147127
vt -0.751696 1.147127
vt 1.041675 -0.005205
vt -0.026786 0.878718
vt -1.065102 0.878718
vt 1.038317 -0.01192
vt -0.024183 1.144147
vt 1.043165 -0.007313
vt -0.026786 0.875738
vt 1.039371 -0.014901
vt -0.753656 1.141167
vt 1.043165 1.453741
vt -1.066156 0.875738
vt -0.023129 0.875738
vt -0.003656 -0.014901
vt -0.023129 1.141167
vt 1.044655 -0.009678
vt -0.026786 0.872758
vt 1.040553 -0.017881
vt -0.754839 1.138187
vt 1.044655 1.456107
vt -1.067339 0.872758
vt -0.021947 0.872758
vt -0.004839 -0.017881
vt -0.021947 1.138187
vt 1.046145 -0.012261
vt -0.026786 -0.679426
vt -0.026786 -0.676446
vt -1.067339 -0.676446
vt -0.021947 -0.676446
vt 1.041845 -0.020861
vt -0.756131 1.135207
vt 1.046145 1.45869
vt -1.068631 -0.679426
vt -0.020655 -0.679426
vt -0.006131 -0.020861
vt -0.020655 1.135207
vt 1.047635 -0.015016
vt -0.026786 -0.682406
vt 1.043223 -0.023841
vt -0.019299 -0.682449
vt -0.014077 0.791222
vt -0.020777 -0.679667
vt 1.047635 1.461445
vt -1.070008 -0.682406
vt -0.019277 -0.682406
vt -0.007508 -0.023841
vt -0.012575 0.79395
vt 1.049125 -0.017897
vt -0.026786 -0.685386
vt 1.044663 -0.026821
vt -0.017822 -0.685357
vt 1.049125 1.464325
vt -1.071448 -0.685386
vt -0.017837 -0.685386
vt -0.008948 -0.026821
vt -0.011071 0.796803
vt 1.050615 -0.020853
vt -0.026786 -0.688367
vt 1.046141 -0.029801
vt -0.016346 -0.68834
vt 1.050615 1.467281
vt -1.072926 -0.688367
vt -0.016359 -0.688367
vt -0.010426 -0.029801
vt -0.009568 0.799731
vt 1.052105 -0.023833
vt -0.026786 -0.691347
vt 1.047631 -0.032781
vt -0.014869 -0.691347
vt 1.052105 1.470261
vt -1.074416 -0.691347
vt -0.011916 -0.032781
vt -0.008064 0.802684
vt -1.09375 -0.026786
vt -1.09524 1.470261
vt -1.09524 -0.023833
vt -0.026786 -0.694327
vt -0.017837 -0.694323
vt -0.014869 -0.06548
vt -1.075893 -0.0625
vt -1.074416 -0.06548
vt -0.013393 -0.694327
vt -1.09375 1.473214
vt -1.075893 -0.694327
vt -0.013393 -0.0625
vt -0.006561 0.80561
vt -1.075893 1.473214
vt -1.075893 1.508929
vt -0.017837 1.508899
vt -0.026786 1.508929
vt -0.013393 -0.026786
vt 0.004464 -0.694652
vt -1.075893 -0.026786
vt -0.013393 1.473214
vt -0.016359 1.508518
vt 0.011295 0.805284
vt -0.014869 1.508528
vt -0.013393 1.508929
vn 0.9474206251426823 0.3199908733921162 0
vn 0.9663866886215615 0.2570929171623616 0
vn 0 0.2570929171623614 0.9663866886215616
vn 0 0.31999087339211596 0.9474206251426824
vn 0.897320821127188 0.4413789120150951 0
vn 0 0.3199908733921164 -0.9474206251426822
vn 0 0.2570929171623619 -0.9663866886215616
vn 0 1 0
vn 0 0.4413789120150949 0.8973208211271881
vn 0 0.4413789120150953 -0.8973208211271879
vn -0.9663866886215615 0.2570929171623616 0
vn -0.9474206251426823 0.3199908733921162 0
vn -0.897320821127188 0.4413789120150951 0
vn 0.831746939268336 0.5551549594642518 0
vn 0 0.555154959464252 -0.8317469392683359
vn 0 0.5551549594642516 0.8317469392683362
vn -0.831746939268336 0.5551549594642518 0
vn 0 0.49934391971748865 -0.8664038607030641
vn 0.7518290686401177 0.6593580601977453 0
vn 0 0.6593580601977456 -0.7518290686401176
vn 0 0.6593580601977451 0.7518290686401178
vn -0.7518290686401177 0.6593580601977453 0
vn 0.6589466886777453 0.7521896446247016 0
vn 0 0.7521896446247017 -0.6589466886777451
vn 0 0.7521896446247014 0.6589466886777453
vn -0.6589466886777453 0.7521896446247016 0
vn 0.5547001962252291 0.8320502943378437 0
vn 0 0.8320502943378438 -0.5547001962252289
vn 0 0.8320502943378436 0.5547001962252294
vn -0.5547001962252291 0.8320502943378437 0
vn 0.4408880501757083 0.8975621021479584 0
vn 0 0.8975621021479585 -0.4408880501757081
vn 0 0.8975621021479583 0.44088805017570853
vn -0.4408880501757083 0.8975621021479584 0
vn 0.319473114730164 0.9475953403033425 0
vn 0 0.9475953403033426 -0.31947311473016377
vn 0 0.9475953403033424 0.3194731147301642
vn -0.319473114730164 0.9475953403033425 0
vn 0.19254791612152483 0.9812875725276756 0
vn 0 0.9812875725276756 -0.1925479161215246
vn 0 0.9812875725276756 0.19254791612152505
vn -0.19254791612152483 0.9812875725276756 0
vn 0.06230301747419207 0.9980572799261627 0
vn 0 0.9980572799261627 -0.06230301747419185
vn 0 0.9980572799261627 0.06230301747419229
vn -0.06230301747419207 0.9980572799261627 0
vn -0.06901596922882287 0.9976155552072181 0
vn -0.0000010000004071072486 0.9976774061615384 0.06811602773051756
vn 0 0.9976155552072181 -0.06901596922882265
vn 0.06901596922882287 0.9976155552072181 0
vn -0.1343710126038672 0.99093109294835 0
vn -0.000002000000344851089 0.9911721709033718 0.13258102286035134
vn 0 0.99093109294835 -0.13437101260386697
vn 0.1343710126038672 0.99093109294835 0
vn 1 0 0
vn 0 0 -1
vn 0 0 1
vn -1 0 0
vn 0 -1 0
vn -0.9474206251426823 -0.3199908733921162 0
vn -0.9663866886215615 -0.2570929171623616 0
vn 0 -0.31999087339211596 -0.9474206251426824
vn 0 -0.2570929171623614 -0.9663866886215616
vn -0.897320821127188 -0.4413789120150951 0
vn 0 -0.3199908733921164 0.9474206251426822
vn 0 -0.2570929171623619 0.9663866886215616
vn 0 -0.4413789120150949 -0.8973208211271881
vn 0 -0.4413789120150953 0.8973208211271879
vn 0.9474206251426823 -0.3199908733921162 0
vn 0.9663866886215615 -0.2570929171623616 0
vn 0.897320821127188 -0.4413789120150951 0
vn -0.831746939268336 -0.5551549594642518 0
vn 0 -0.555154959464252 0.8317469392683359
vn 0 -0.5551549594642516 -0.8317469392683362
vn 0.831746939268336 -0.5551549594642518 0
vn 0 -0.49934391971748865 0.8664038607030641
vn -0.7518290686401177 -0.6593580601977453 0
vn 0 -0.6593580601977456 0.7518290686401176
vn 0 -0.6593580601977451 -0.7518290686401178
vn 0.7518290686401177 -0.6593580601977453 0
vn -0.6589466886777453 -0.7521896446247016 0
vn 0 -0.7521896446247017 0.6589466886777451
vn 0 -0.7521896446247014 -0.6589466886777453
vn 0.6589466886777453 -0.7521896446247016 0
vn -0.5547001962252291 -0.8320502943378437 0
vn 0 -0.8320502943378438 0.5547001962252289
vn 0 -0.8320502943378436 -0.5547001962252294
vn 0.5547001962252291 -0.8320502943378437 0
vn -0.4408880501757083 -0.8975621021479584 0
vn 0 -0.8975621021479585 0.4408880501757081
vn 0 -0.8975621021479583 -0.44088805017570853
vn 0.4408880501757083 -0.8975621021479584 0
vn -0.319473114730164 -0.9475953403033425 0
vn 0 -0.9475953403033426 0.31947311473016377
vn 0 -0.9475953403033424 -0.3194731147301642
vn 0.319473114730164 -0.9475953403033425 0
vn -0.19254791612152483 -0.9812875725276756 0
vn 0 -0.9812875725276756 0.1925479161215246
vn 0 -0.9812875725276756 -0.19254791612152505
vn 0.19254791612152483 -0.9812875725276756 0
vn -0.06230301747419207 -0.9980572799261627 0
vn 0 -0.9980572799261627 0.06230301747419185
vn 0 -0.9980572799261627 -0.06230301747419229
vn 0.06230301747419207 -0.9980572799261627 0
vn 0.06901596922882287 -0.9976155552072181 0
vn 0.0000010000004071072486 -0.9976774061615384 -0.06811602773051756
vn 0 -0.9976155552072181 0.06901596922882265
vn -0.06901596922882287 -0.9976155552072181 0
vn 0.1343710126038672 -0.99093109294835 0
vn 0.000002000000344851089 -0.9911721709033718 -0.13258102286035134
vn 0 -0.99093109294835 0.13437101260386697
vn -0.1343710126038672 -0.99093109294835 0
usemtl material_0_0
f 1/1/1 2/2/2 3/3/1
f 2/2/2 1/1/1 4/4/2
f 2/2/3 5/5/4 3/6/4
f 3/3/1 6/7/5 1/1/1
f 7/8/6 4/4/7 1/9/6
f 8/10/8 2/2/8 4/4/8
f 5/5/4 2/2/3 9/11/3
f 10/12/9 3/6/4 5/5/4
f 6/7/5 3/3/1 11/13/5
f 12/14/10 1/15/6 6/16/10
f 4/4/7 7/8/6 8/10/7
f 1/15/6 12/14/10 7/17/6
f 2/2/8 8/10/8 9/11/8
f 9/11/11 13/18/12 5/19/12
f 3/6/4 10/12/9 11/20/9
f 5/19/12 14/21/13 10/22/13
f 11/13/5 15/23/14 6/7/5
f 6/16/10 16/24/15 12/14/10
f 13/18/12 9/11/11 8/10/11
f 14/21/13 5/19/12 13/18/12
f 17/25/16 11/20/9 10/12/9
f 16/26/17 10/22/13 14/21/13
f 15/23/14 11/13/5 18/27/14
f 19/28/15 6/16/10 15/29/15
f 6/16/10 19/28/15 16/24/15
f 12/14/10 16/24/15 14/30/18
f 11/20/9 17/25/16 18/31/16
f 10/22/13 16/26/17 17/32/17
f 18/27/14 20/33/19 15/23/14
f 15/29/15 21/34/20 19/28/15
f 19/28/15 21/34/20 16/24/15
f 22/35/21 18/31/16 17/25/16
f 21/36/22 17/37/17 16/38/17
f 20/33/19 18/27/14 23/39/19
f 24/40/20 15/29/15 20/41/20
f 15/29/15 24/40/20 21/34/20
f 18/31/16 22/35/21 23/42/21
f 17/37/17 21/36/22 22/43/22
f 25/44/23 20/33/19 23/39/19
f 26/45/24 24/40/20 20/41/20
f 26/45/24 21/34/20 24/40/20
f 22/35/21 25/46/25 23/42/21
f 27/47/26 22/43/22 21/36/22
f 20/33/19 25/44/23 28/48/23
f 26/45/24 20/41/20 28/49/24
f 21/34/20 26/45/24 27/50/24
f 25/46/25 22/35/21 29/51/25
f 22/43/22 27/47/26 29/52/26
f 30/53/27 28/48/23 25/44/23
f 31/54/28 26/45/24 28/49/24
f 31/54/28 27/50/24 26/45/24
f 29/51/25 30/55/29 25/46/25
f 32/56/30 29/52/26 27/47/26
f 28/48/23 30/53/27 33/57/27
f 31/54/28 28/49/24 33/58/28
f 27/50/24 31/54/28 32/59/28
f 30/55/29 29/51/25 34/60/29
f 29/52/26 32/56/30 34/61/30
f 35/62/31 33/57/27 30/53/27
f 36/63/32 31/64/28 33/65/28
f 36/63/32 32/66/28 31/64/28
f 34/60/29 35/67/33 30/55/29
f 37/68/34 34/61/30 32/56/30
f 33/57/27 35/62/31 38/69/31
f 36/63/32 33/65/28 38/70/32
f 32/66/28 36/63/32 37/71/32
f 35/67/33 34/60/29 39/72/33
f 34/61/30 37/68/34 39/73/34
f 40/74/35 38/69/31 35/62/31
f 41/75/36 36/63/32 38/70/32
f 41/75/36 37/71/32 36/63/32
f 39/72/33 40/76/37 35/67/33
f 42/77/38 39/78/34 37/79/34
f 38/69/31 40/74/35 43/80/35
f 41/75/36 38/70/32 43/81/36
f 37/71/32 41/75/36 42/82/36
f 40/76/37 39/72/33 44/83/37
f 39/78/34 42/77/38 44/84/38
f 45/85/39 43/80/35 40/74/35
f 46/86/40 41/75/36 43/81/36
f 46/86/40 42/82/36 41/75/36
f 44/83/37 45/87/41 40/76/37
f 47/88/42 44/84/38 42/77/38
f 43/80/35 45/85/39 48/89/39
f 46/86/40 43/81/36 48/90/40
f 42/82/36 46/86/40 47/91/40
f 45/87/41 44/83/37 49/92/41
f 44/84/38 47/88/42 49/93/42
f 50/94/43 48/89/39 45/85/39
f 51/95/44 46/86/40 48/90/40
f 51/95/44 47/91/40 46/86/40
f 49/92/41 50/96/45 45/87/41
f 52/97/46 49/93/42 47/88/42
f 48/89/39 50/94/43 53/98/43
f 51/95/44 48/90/40 53/99/44
f 47/91/40 51/95/44 52/100/44
f 50/96/45 49/92/41 54/101/45
f 49/93/42 52/97/46 54/102/46
f 55/103/47 53/98/43 50/94/43
f 56/104/48 51/95/44 53/99/44
f 56/104/48 52/100/44 51/95/44
f 54/101/45 55/105/49 50/96/45
f 57/106/50 54/102/46 52/97/46
f 53/98/43 55/103/47 58/107/47
f 56/104/48 53/99/44 58/108/48
f 52/100/44 56/104/48 57/106/48
f 55/105/49 54/101/45 59/109/49
f 54/102/46 57/106/50 59/110/50
f 60/111/51 58/112/47 55/113/47
f 61/114/52 56/104/48 58/108/48
f 62/115/52 57/106/48 56/104/48
f 59/116/49 60/117/53 55/118/49
f 63/119/54 59/110/50 57/106/50
f 58/112/47 60/111/51 64/120/51
f 62/115/52 56/104/48 61/114/52
f 61/114/52 58/108/48 64/121/52
f 57/106/48 62/115/52 63/119/52
f 60/117/53 59/116/49 65/122/53
f 59/110/50 63/119/54 65/123/54
f 60/111/55 66/124/55 64/120/55
f 64/125/56 62/126/56 61/127/56
f 67/128/57 60/117/57 65/122/57
f 68/129/58 65/123/58 63/119/58
f 66/124/55 60/111/55 69/130/55
f 68/131/56 64/125/56 66/124/56
f 64/125/56 70/132/56 62/126/56
f 60/117/57 67/128/57 69/130/57
f 65/123/58 68/129/58 67/133/58
f 71/134/56 68/131/56 63/135/56
f 67/128/59 66/124/59 69/130/59
f 64/125/56 68/131/56 70/132/56
f 66/124/59 67/128/59 68/131/59
f 68/131/56 71/134/56 70/132/56
usemtl material_1_0
f 3//60 2//61 1//60
f 4//61 1//60 2//61
f 3//62 5//62 2//63
f 1//60 6//64 3//60
f 1//65 4//66 7//65
f 4//59 2//59 8//59
f 9//63 2//63 5//62
f 5//62 3//62 10//67
f 11//64 3//60 6//64
f 6//68 1//65 12//68
f 8//66 7//65 4//66
f 7//65 12//68 1//65
f 9//59 8//59 2//59
f 5//69 13//69 9//70
f 11//67 10//67 3//62
f 10//71 14//71 5//69
f 6//64 15//72 11//64
f 12//68 16//73 6//68
f 8//70 9//70 13//69
f 13//69 5//69 14//71
f 10//67 11//67 17//74
f 14//71 10//71 16//75
f 18//72 11//64 15//72
f 15//73 6//68 19//73
f 16//73 19//73 6//68
f 14//76 16//73 12//68
f 18//74 17//74 11//67
f 17//75 16//75 10//71
f 15//72 20//77 18//72
f 19//73 21//78 15//73
f 16//73 21//78 19//73
f 17//74 18//74 22//79
f 16//75 17//75 21//80
f 23//77 18//72 20//77
f 20//78 15//73 24//78
f 21//78 24//78 15//73
f 23//79 22//79 18//74
f 22//80 21//80 17//75
f 23//77 20//77 25//81
f 20//78 24//78 26//82
f 24//78 21//78 26//82
f 23//79 25//83 22//79
f 21//80 22//80 27//84
f 28//81 25//81 20//77
f 28//82 20//78 26//82
f 27//82 26//82 21//78
f 29//83 22//79 25//83
f 29//84 27//84 22//80
f 25//81 28//81 30//85
f 28//82 26//82 31//86
f 26//82 27//82 31//86
f 25//83 30//87 29//83
f 27//84 29//84 32//88
f 33//85 30//85 28//81
f 33//86 28//82 31//86
f 32//86 31//86 27//82
f 34//87 29//83 30//87
f 34//88 32//88 29//84
f 30//85 33//85 35//89
f 33//86 31//86 36//90
f 31//86 32//86 36//90
f 30//87 35//91 34//87
f 32//88 34//88 37//92
f 38//89 35//89 33//85
f 38//90 33//86 36//90
f 37//90 36//90 32//86
f 39//91 34//87 35//91
f 39//92 37//92 34//88
f 35//89 38//89 40//93
f 38//90 36//90 41//94
f 36//90 37//90 41//94
f 35//91 40//95 39//91
f 37//92 39//92 42//96
f 43//93 40//93 38//89
f 43//94 38//90 41//94
f 42//94 41//94 37//90
f 44//95 39//91 40//95
f 44//96 42//96 39//92
f 40//93 43//93 45//97
f 43//94 41//94 46//98
f 41//94 42//94 46//98
f 40//95 45//99 44//95
f 42//96 44//96 47//100
f 48//97 45//97 43//93
f 48//98 43//94 46//98
f 47//98 46//98 42//94
f 49//99 44//95 45//99
f 49//100 47//100 44//96
f 45//97 48//97 50//101
f 48//98 46//98 51//102
f 46//98 47//98 51//102
f 45//99 50//103 49//99
f 47//100 49//100 52//104
f 53//101 50//101 48//97
f 53//102 48//98 51//102
f 52//102 51//102 47//98
f 54//103 49//99 50//103
f 54//104 52//104 49//100
f 50//101 53//101 55//105
f 53//102 51//102 56//106
f 51//102 52//102 56//106
f 50//103 55//107 54//103
f 52//104 54//104 57//108
f 58//105 55//105 53//101
f 58//106 53//102 56//106
f 57//106 56//106 52//102
f 59//107 54//103 55//107
f 59//108 57//108 54//104
f 55//105 58//105 60//109
f 58//106 56//106 61//110
f 56//106 57//106 62//110
f 55//107 60//111 59//107
f 57//108 59//108 63//112
f 64//109 60//109 58//105
f 61//110 56//106 62//110
f 64//110 58//106 61//110
f 63//110 62//110 57//106
f 65//111 59//107 60//111
f 65//112 63//112 59//108
f 64//58 66//58 60//58
f 61//57 62//57 64//57
f 65//56 60//56 67//56
f 63//55 65//55 68//55
f 69//58 60//58 66//58
f 66//57 64//57 68//57
f 62//57 70//57 64//57
f 69//56 67//56 60//56
f 67//55 68//55 65//55
f 63//57 68//57 71//57
f 69//8 66//8 67//8
f 70//57 68//57 64//57
f 68//8 67//8 66//8
f 70//57 71//57 68//57
