# SSTK version 0.8.0
# 31
mtllib original-31.mtl
o top_cleat5/top_cleat/mesh32/mesh32-geometry#mesh32-geometry
v -0.397059 0.112840 -0.296576
v -0.397745 0.085360 -0.294919
v -0.397059 0.085360 -0.296576
v -0.397745 0.112840 -0.294919
v -0.418589 0.085360 -0.272531
v -0.395967 0.112840 -0.297999
v -0.418589 0.112840 -0.272531
v -0.397979 0.085360 -0.293141
v -0.395967 0.085360 -0.297999
v -0.397979 0.112840 -0.293141
v -0.418589 0.085360 -0.327491
v -0.397745 0.085360 -0.291363
v -0.394544 0.085360 -0.299091
v -0.418589 0.112840 -0.313751
v -0.397745 0.112840 -0.291363
v -0.397059 0.085360 -0.289706
v -0.394544 0.112840 -0.299091
v -0.418589 0.099100 -0.313751
v -0.397059 0.112840 -0.289706
v -0.392887 0.085360 -0.299777
v -0.363629 0.085360 -0.272531
v -0.395967 0.085360 -0.288284
v -0.363629 0.112840 -0.313751
v -0.395967 0.112840 -0.288284
v -0.391109 0.085360 -0.300011
v -0.418589 0.099100 -0.327491
v -0.363629 0.112840 -0.272531
v -0.391109 0.085360 -0.286271
v -0.394544 0.085360 -0.287192
v -0.392887 0.112840 -0.299777
v -0.363629 0.099100 -0.313751
v -0.394544 0.112840 -0.287192
v -0.389331 0.085360 -0.299777
v -0.363629 0.099100 -0.327491
v -0.391109 0.112840 -0.286271
v -0.392887 0.085360 -0.286505
v -0.389331 0.085360 -0.286505
v -0.391109 0.112840 -0.300011
v -0.392887 0.112840 -0.286505
v -0.387674 0.085360 -0.299091
v -0.363629 0.085360 -0.327491
v -0.389331 0.112840 -0.286505
v -0.387674 0.085360 -0.287192
v -0.389331 0.112840 -0.299777
v -0.386251 0.112840 -0.297999
v -0.386251 0.085360 -0.297999
v -0.387674 0.112840 -0.287192
v -0.386251 0.085360 -0.288284
v -0.387674 0.112840 -0.299091
v -0.385159 0.112840 -0.296576
v -0.386251 0.112840 -0.288284
v -0.385159 0.085360 -0.289706
v -0.384473 0.112840 -0.294919
v -0.385159 0.085360 -0.296576
v -0.385159 0.112840 -0.289706
v -0.384473 0.085360 -0.291363
v -0.384239 0.112840 -0.293141
v -0.384473 0.085360 -0.294919
v -0.384473 0.112840 -0.291363
v -0.384239 0.085360 -0.293141
vt -0.069331 0.101562
vt -0.07545 0
vt -0.069331 0
vt -0.07545 0.101562
vt -0.1875 0
vt -0.105469 0.079574
vt -0.111121 0.077037
vt -0.038959 0
vt -0.032841 0.101562
vt -0.038959 0.101562
vt 0.105469 0.079574
vt 0.1875 0
vt 0.111121 0.077037
vt -0.100889 0.101562
vt -0.107007 0
vt -0.100889 0
vt -0.100615 0.083609
vt -0.117188 0.076172
vt -0.032841 0
vt 0.100615 0.083609
vt 0.117188 0.076172
vt -0.107007 0.101562
vt 0 0
vt -0.123254 0.077037
vt 0.006097 0
vt -0.000022 0.101562
vt -0.000022 0
vt 0.046875 0
vt 0.123254 0.077037
vt -0.125363 0.101562
vt -0.131481 0
vt -0.125363 0
vt -0.09689 0.088867
vt 0.1875 0.101562
vt -0.128906 0.079574
vt 0.006097 0.101562
vt 0.09689 0.088867
vt 0.046875 0.050781
vt 0.046875 0.101562
vt 0.128906 0.079574
vt -0.131481 0.101562
vt -0.094549 0.094991
vt 0 0.101562
vt -0.141084 0.101562
vt -0.147203 0
vt -0.141084 0
vt -0.13376 0.083609
vt 0.044827 0
vt 0.038709 0.101562
vt 0.038709 0
vt 0.046875 0.203125
vt -0.1875 0.101562
vt 0 0.050781
vt 0.13376 0.083609
vt -0.147203 0.101562
vt -0.09375 0.101562
vt -0.140625 0.101562
vt -0.1875 0.203125
vt -0.146983 0.101562
vt -0.153102 0
vt -0.146983 0
vt -0.137485 0.088867
vt 0.044827 0.101562
vt 0.094549 0.094991
vt -0.1875 0.050781
vt 0.137485 0.088867
vt -0.153102 0.101562
vt -0.094549 0.108134
vt 0.080711 0
vt 0.074593 0.101562
vt 0.074593 0
vt 0 0.203125
vt -0.046875 0.050781
vt 0.1875 0.203125
vt 0.140625 0.101562
vt -0.139826 0.094991
vt -0.139826 0.108134
vt -0.142657 0
vt -0.148775 0.101562
vt -0.148775 0
vt 0.09375 0.101562
vt -0.046875 0.101562
vt 0.139826 0.094991
vt -0.142657 0.101562
vt -0.09689 0.114258
vt 0.111303 0
vt 0.105185 0.101562
vt 0.105185 0
vt 0.080711 0.101562
vt 0.139826 0.108134
vt -0.105185 0
vt -0.111303 0.101562
vt -0.111303 0
vt -0.137485 0.114258
vt -0.074593 0
vt -0.080711 0.101562
vt -0.080711 0
vt -0.134519 0.101562
vt -0.1284 0
vt -0.1284 0.101562
vt -0.134519 0
vt 0.094549 0.108134
vt 0.100615 0.119516
vt -0.100615 0.119516
vt 0.134519 0
vt 0.1284 0.101562
vt 0.1284 0
vt 0.111303 0.101562
vt 0.137485 0.114258
vt -0.074593 0.101562
vt -0.105185 0.101562
vt -0.13376 0.119516
vt -0.038709 0
vt -0.044827 0.101562
vt -0.044827 0
vt -0.038709 0.101562
vt 0.09689 0.114258
vt 0.105469 0.123551
vt 0.148775 0
vt 0.142657 0.101562
vt 0.142657 0
vt 0.134519 0.101562
vt 0.13376 0.119516
vt -0.128906 0.123551
vt 0.000022 0
vt -0.006097 0.101562
vt -0.006097 0
vt 0.000022 0.101562
vt 0.148775 0.101562
vt 0.146983 0
vt 0.153102 0.101562
vt 0.146983 0.101562
vt 0.111121 0.126088
vt -0.105469 0.123551
vt 0.128906 0.123551
vt -0.123254 0.126088
vt 0.038959 0.101562
vt 0.032841 0
vt 0.038959 0
vt 0.153102 0
vt 0.141084 0
vt 0.147203 0.101562
vt 0.141084 0.101562
vt 0.117188 0.126953
vt -0.111121 0.126088
vt 0.123254 0.126088
vt 0.032841 0.101562
vt -0.117188 0.126953
vt 0.07545 0.101562
vt 0.069331 0
vt 0.07545 0
vt 0.147203 0
vt 0.125363 0
vt 0.131481 0.101562
vt 0.125363 0.101562
vt 0.069331 0.101562
vt 0.107007 0.101562
vt 0.100889 0
vt 0.107007 0
vt 0.131481 0
vt 0.100889 0.101562
vn 0.8660253028382763 0 0.5000001748438415
vn 0.9659258492011171 0 0.2588189595935752
vn -0.8660253028382763 0 -0.5000001748438415
vn -0.9659258492011171 0 -0.2588189595935752
vn 0 -1 0
vn 0 1 0
vn 0.7071067811865478 0 0.7071067811865476
vn -0.7071067811865478 0 -0.7071067811865476
vn 1 0 0
vn -1 0 0
vn 0.500000174843842 0 0.8660253028382761
vn -0.500000174843842 0 -0.8660253028382761
vn 0.9659258492011171 0 -0.2588189595935757
vn -0.9659258492011171 0 0.2588189595935757
vn 0 0 1
vn 0 0 -1
vn 0.8660253028382761 0 -0.500000174843842
vn -0.8660253028382761 0 0.500000174843842
vn 0.2588189595935757 0 0.9659258492011171
vn -0.2588189595935757 0 -0.9659258492011171
vn 0.7071067811865476 0 -0.7071067811865478
vn -0.7071067811865476 0 0.7071067811865478
vn 0.5000001748438415 0 -0.8660253028382763
vn -0.5000001748438415 0 0.8660253028382763
vn -0.2588189595935752 0 0.9659258492011171
vn 0.2588189595935752 0 -0.9659258492011171
usemtl material_0_0
f 1/1/1 2/2/2 3/3/1
f 2/2/2 1/1/1 4/4/2
f 3/3/3 2/2/4 1/1/3
f 4/4/4 1/1/3 2/2/4
f 5/5/5 3/6/5 2/7/5
f 2/7/6 3/6/6 5/5/6
f 3/8/1 6/9/7 1/10/1
f 1/10/3 6/9/8 3/8/3
f 1/11/6 7/12/6 4/13/6
f 4/13/5 7/12/5 1/11/5
f 4/14/2 8/15/9 2/16/2
f 2/16/4 8/15/10 4/14/4
f 5/5/5 9/17/5 3/6/5
f 3/6/6 9/17/6 5/5/6
f 5/5/5 2/7/5 8/18/5
f 8/18/6 2/7/6 5/5/6
f 6/9/7 3/8/1 9/19/7
f 9/19/8 3/8/3 6/9/8
f 6/20/6 7/12/6 1/11/6
f 1/11/5 7/12/5 6/20/5
f 4/13/6 7/12/6 10/21/6
f 10/21/5 7/12/5 4/13/5
f 8/15/9 4/14/2 10/22/9
f 10/22/10 4/14/4 8/15/10
f 11/23/5 9/17/5 5/5/5
f 5/5/6 9/17/6 11/23/6
f 5/5/5 8/18/5 12/24/5
f 12/24/6 8/18/6 5/5/6
f 13/25/11 6/26/7 9/27/7
f 9/27/8 6/26/8 13/25/12
f 6/20/6 14/28/6 7/12/6
f 7/12/5 14/28/5 6/20/5
f 10/21/6 7/12/6 15/29/6
f 15/29/5 7/12/5 10/21/5
f 10/30/9 12/31/13 8/32/9
f 8/32/10 12/31/14 10/30/10
f 9/17/5 11/23/5 13/33/5
f 13/33/6 11/23/6 9/17/6
f 7/34/10 11/23/10 5/12/10
f 5/12/9 11/23/9 7/34/9
f 5/5/5 12/24/5 16/35/5
f 16/35/6 12/24/6 5/5/6
f 6/26/7 13/25/11 17/36/11
f 17/36/12 13/25/12 6/26/8
f 17/37/6 14/28/6 6/20/6
f 6/20/5 14/28/5 17/37/5
f 18/38/10 7/34/10 14/39/10
f 14/39/9 7/34/9 18/38/9
f 15/29/6 7/12/6 19/40/6
f 19/40/5 7/12/5 15/29/5
f 12/31/13 10/30/9 15/41/13
f 15/41/14 10/30/10 12/31/14
f 13/33/5 11/23/5 20/42/5
f 20/42/6 11/23/6 13/33/6
f 11/23/10 7/34/10 18/38/10
f 18/38/9 7/34/9 11/23/9
f 21/12/15 7/43/15 5/23/15
f 5/23/16 7/43/16 21/12/16
f 15/44/13 16/45/17 12/46/13
f 12/46/14 16/45/18 15/44/14
f 5/5/5 16/35/5 22/47/5
f 22/47/6 16/35/6 5/5/6
f 20/48/19 17/49/11 13/50/11
f 13/50/12 17/49/12 20/48/20
f 14/28/6 17/37/6 23/51/6
f 23/51/5 17/37/5 14/28/5
f 23/52/16 18/53/16 14/43/16
f 14/43/15 18/53/15 23/52/15
f 19/40/6 7/12/6 24/54/6
f 24/54/5 7/12/5 19/40/5
f 16/45/17 15/44/13 19/55/17
f 19/55/18 15/44/14 16/45/18
f 20/42/5 11/23/5 25/56/5
f 25/56/6 11/23/6 20/42/6
f 26/53/10 11/23/10 18/38/10
f 18/38/9 11/23/9 26/53/9
f 7/43/15 21/12/15 27/34/15
f 27/34/16 21/12/16 7/43/16
f 5/5/5 28/57/5 21/58/5
f 21/58/6 28/57/6 5/5/6
f 19/59/17 22/60/21 16/61/17
f 16/61/18 22/60/22 19/59/18
f 5/5/5 22/47/5 29/62/5
f 29/62/6 22/47/6 5/5/6
f 17/49/11 20/48/19 30/63/19
f 30/63/20 20/48/20 17/49/12
f 23/51/6 17/37/6 30/64/6
f 30/64/5 17/37/5 23/51/5
f 18/53/16 23/52/16 31/65/16
f 31/65/15 23/52/15 18/53/15
f 24/54/6 7/12/6 32/66/6
f 32/66/5 7/12/5 24/54/5
f 22/60/21 19/59/17 24/67/21
f 24/67/22 19/59/18 22/60/22
f 11/23/5 33/68/5 25/56/5
f 25/56/6 33/68/6 11/23/6
f 25/69/15 30/70/19 20/71/19
f 20/71/20 30/70/20 25/69/16
f 34/65/16 11/23/16 26/53/16
f 26/53/15 11/23/15 34/65/15
f 18/28/6 34/72/6 26/23/6
f 26/23/5 34/72/5 18/28/5
f 21/5/9 31/73/9 27/52/9
f 27/52/10 31/73/10 21/5/10
f 27/74/6 35/75/6 7/12/6
f 7/12/5 35/75/5 27/74/5
f 5/5/5 36/76/5 28/57/5
f 28/57/6 36/76/6 5/5/6
f 37/77/5 21/58/5 28/57/5
f 28/57/6 21/58/6 37/77/6
f 22/78/21 32/79/23 29/80/23
f 29/80/24 32/79/24 22/78/22
f 5/5/5 29/62/5 36/76/5
f 36/76/6 29/62/6 5/5/6
f 23/51/6 30/64/6 38/81/6
f 38/81/5 30/64/5 23/51/5
f 27/52/9 31/73/9 23/82/9
f 23/82/10 31/73/10 27/52/10
f 34/72/6 18/28/6 31/51/6
f 31/51/5 18/28/5 34/72/5
f 32/66/6 7/12/6 39/83/6
f 39/83/5 7/12/5 32/66/5
f 32/79/23 22/78/21 24/84/21
f 24/84/22 22/78/22 32/79/24
f 11/23/5 40/85/5 33/68/5
f 33/68/6 40/85/6 11/23/6
f 33/86/25 38/87/15 25/88/15
f 25/88/16 38/87/16 33/86/26
f 30/70/19 25/69/15 38/89/15
f 38/89/16 25/69/16 30/70/20
f 11/23/16 34/65/16 41/5/16
f 41/5/15 34/65/15 11/23/15
f 21/5/9 34/53/9 31/73/9
f 31/73/10 34/53/10 21/5/10
f 27/74/6 42/90/6 35/75/6
f 35/75/5 42/90/5 27/74/5
f 39/83/6 7/12/6 35/75/6
f 35/75/5 7/12/5 39/83/5
f 36/91/26 35/92/16 28/93/16
f 28/93/15 35/92/15 36/91/25
f 43/94/5 21/58/5 37/77/5
f 37/77/6 21/58/6 43/94/6
f 28/95/16 42/96/20 37/97/20
f 37/97/19 42/96/19 28/95/15
f 39/98/26 29/99/23 32/100/23
f 32/100/24 29/99/24 39/98/25
f 29/99/23 39/98/26 36/101/26
f 36/101/25 39/98/25 29/99/24
f 44/102/6 23/51/6 38/81/6
f 38/81/5 23/51/5 44/102/5
f 23/51/6 45/103/6 27/74/6
f 27/74/5 45/103/5 23/51/5
f 11/23/5 46/104/5 40/85/5
f 40/85/6 46/104/6 11/23/6
f 40/105/24 44/106/25 33/107/25
f 33/107/26 44/106/26 40/105/23
f 38/87/15 33/86/25 44/108/25
f 44/108/26 33/86/26 38/87/16
f 34/53/9 21/5/9 41/23/9
f 41/23/10 21/5/10 34/53/10
f 41/72/5 46/104/5 11/23/5
f 11/23/6 46/104/6 41/72/6
f 27/74/6 47/109/6 42/90/6
f 42/90/5 47/109/5 27/74/5
f 42/96/20 28/95/16 35/110/16
f 35/110/15 28/95/15 42/96/19
f 35/92/16 36/91/26 39/111/26
f 39/111/25 36/91/25 35/92/15
f 48/112/5 21/58/5 43/94/5
f 43/94/6 21/58/6 48/112/6
f 37/113/20 47/114/12 43/115/12
f 43/115/11 47/114/11 37/113/19
f 47/114/12 37/113/20 42/116/20
f 42/116/19 37/113/19 47/114/11
f 49/117/6 23/51/6 44/102/6
f 44/102/5 23/51/5 49/117/5
f 45/103/6 23/51/6 49/117/6
f 49/117/5 23/51/5 45/103/5
f 27/74/6 45/103/6 50/118/6
f 50/118/5 45/103/5 27/74/5
f 46/119/22 49/120/24 40/121/24
f 40/121/23 49/120/23 46/119/21
f 44/106/25 40/105/24 49/122/24
f 49/122/23 40/105/23 44/106/26
f 46/104/5 41/72/5 21/58/5
f 21/58/6 41/72/6 46/104/6
f 27/74/6 51/123/6 47/109/6
f 47/109/5 51/123/5 27/74/5
f 52/124/5 21/58/5 48/112/5
f 48/112/6 21/58/6 52/124/6
f 43/125/12 51/126/8 48/127/8
f 48/127/7 51/126/7 43/125/11
f 51/126/8 43/125/12 47/128/12
f 47/128/11 43/125/11 51/126/7
f 49/120/24 46/119/22 45/129/22
f 45/129/21 46/119/21 49/120/23
f 46/130/22 50/131/18 45/132/22
f 45/132/21 50/131/17 46/130/21
f 27/74/6 50/118/6 53/133/6
f 53/133/5 50/118/5 27/74/5
f 46/104/5 21/58/5 54/134/5
f 54/134/6 21/58/6 46/104/6
f 27/74/6 55/135/6 51/123/6
f 51/123/5 55/135/5 27/74/5
f 56/136/5 21/58/5 52/124/5
f 52/124/6 21/58/6 56/136/6
f 51/137/8 52/138/3 48/139/8
f 48/139/7 52/138/1 51/137/7
f 50/131/18 46/130/22 54/140/18
f 54/140/17 46/130/21 50/131/17
f 54/141/18 53/142/14 50/143/18
f 50/143/17 53/142/13 54/141/17
f 27/74/6 53/133/6 57/144/6
f 57/144/5 53/133/5 27/74/5
f 54/134/5 21/58/5 58/145/5
f 58/145/6 21/58/6 54/134/6
f 27/74/6 59/146/6 55/135/6
f 55/135/5 59/146/5 27/74/5
f 52/138/3 51/137/8 55/147/3
f 55/147/1 51/137/7 52/138/1
f 60/148/5 21/58/5 56/136/5
f 56/136/6 21/58/6 60/148/6
f 55/149/3 56/150/4 52/151/3
f 52/151/1 56/150/2 55/149/1
f 53/142/14 54/141/18 58/152/14
f 58/152/13 54/141/17 53/142/13
f 58/153/14 57/154/10 53/155/14
f 53/155/13 57/154/9 58/153/13
f 27/74/6 57/144/6 59/146/6
f 59/146/5 57/144/5 27/74/5
f 58/145/5 21/58/5 60/148/5
f 60/148/6 21/58/6 58/145/6
f 56/150/4 55/149/3 59/156/4
f 59/156/2 55/149/1 56/150/2
f 59/157/4 60/158/10 56/159/4
f 56/159/2 60/158/9 59/157/2
f 57/154/10 58/153/14 60/160/10
f 60/160/9 58/153/13 57/154/9
f 60/158/10 59/157/4 57/161/10
f 57/161/9 59/157/2 60/158/9
