# SSTK version 0.8.0
# 30
mtllib original-30.mtl
o top_cleat4/top_cleat12/mesh36/mesh36-geometry#mesh36-geometry
v 0.438575 0.085360 -0.178883
v 0.436918 0.085360 -0.178197
v 0.438575 0.112840 -0.178883
v 0.414530 0.085360 -0.157353
v 0.436918 0.112840 -0.178197
v 0.439998 0.112840 -0.179975
v 0.439998 0.085360 -0.179975
v 0.435140 0.085360 -0.177963
v 0.414530 0.112840 -0.157353
v 0.469490 0.085360 -0.157353
v 0.433362 0.085360 -0.178197
v 0.435140 0.112840 -0.177963
v 0.455750 0.112840 -0.157353
v 0.441089 0.085360 -0.181398
v 0.431705 0.085360 -0.178883
v 0.433362 0.112840 -0.178197
v 0.455750 0.099100 -0.157353
v 0.441089 0.112840 -0.181398
v 0.441776 0.085360 -0.183055
v 0.414530 0.085360 -0.212313
v 0.430282 0.085360 -0.179975
v 0.431705 0.112840 -0.178883
v 0.455750 0.112840 -0.212313
v 0.442010 0.085360 -0.184833
v 0.469490 0.099100 -0.157353
v 0.414530 0.112840 -0.212313
v 0.428270 0.085360 -0.184833
v 0.429190 0.085360 -0.181398
v 0.430282 0.112840 -0.179975
v 0.455750 0.099100 -0.212313
v 0.441776 0.112840 -0.183055
v 0.441776 0.085360 -0.186611
v 0.469490 0.099100 -0.212313
v 0.428270 0.112840 -0.184833
v 0.428504 0.085360 -0.186611
v 0.428504 0.085360 -0.183055
v 0.429190 0.112840 -0.181398
v 0.442010 0.112840 -0.184833
v 0.441089 0.085360 -0.188268
v 0.469490 0.085360 -0.212313
v 0.428504 0.112840 -0.183055
v 0.428504 0.112840 -0.186611
v 0.429190 0.085360 -0.188268
v 0.439998 0.112840 -0.189691
v 0.441776 0.112840 -0.186611
v 0.439998 0.085360 -0.189691
v 0.429190 0.112840 -0.188268
v 0.430282 0.085360 -0.189691
v 0.438575 0.112840 -0.190783
v 0.441089 0.112840 -0.188268
v 0.430282 0.112840 -0.189691
v 0.431705 0.085360 -0.190783
v 0.436918 0.112840 -0.191469
v 0.438575 0.085360 -0.190783
v 0.431705 0.112840 -0.190783
v 0.433362 0.085360 -0.191469
v 0.435140 0.112840 -0.191703
v 0.436918 0.085360 -0.191469
v 0.433362 0.112840 -0.191469
v 0.435140 0.085360 -0.191703
vt -0.069331 0
vt -0.07545 0
vt -0.069331 0.101562
vt -0.111121 0.077037
vt -0.105469 0.079574
vt -0.1875 0
vt -0.07545 0.101562
vt -0.038959 0.101562
vt -0.032841 0.101562
vt -0.038959 0
vt -0.100615 0.083609
vt -0.117188 0.076172
vt 0.111121 0.077037
vt 0.1875 0
vt 0.105469 0.079574
vt -0.100889 0
vt -0.107007 0
vt -0.100889 0.101562
vt 0.100615 0.083609
vt -0.032841 0
vt 0 0
vt -0.123254 0.077037
vt 0.117188 0.076172
vt -0.107007 0.101562
vt 0.046875 0
vt -0.000022 0
vt -0.000022 0.101562
vt 0.006097 0
vt -0.09689 0.088867
vt 0.1875 0.101562
vt -0.125363 0
vt -0.131481 0
vt -0.125363 0.101562
vt -0.128906 0.079574
vt 0.123254 0.077037
vt 0.046875 0.101562
vt 0.046875 0.050781
vt 0.09689 0.088867
vt 0.006097 0.101562
vt -0.094549 0.094991
vt 0 0.101562
vt -0.131481 0.101562
vt -0.141084 0
vt -0.147203 0
vt -0.141084 0.101562
vt -0.13376 0.083609
vt 0.128906 0.079574
vt 0 0.050781
vt -0.1875 0.101562
vt 0.046875 0.203125
vt 0.038709 0
vt 0.038709 0.101562
vt 0.044827 0
vt -0.09375 0.101562
vt -0.1875 0.203125
vt -0.140625 0.101562
vt -0.147203 0.101562
vt -0.146983 0
vt -0.153102 0
vt -0.146983 0.101562
vt -0.137485 0.088867
vt 0.13376 0.083609
vt -0.1875 0.050781
vt 0.094549 0.094991
vt 0.044827 0.101562
vt -0.094549 0.108134
vt 0.074593 0
vt 0.074593 0.101562
vt 0.080711 0
vt 0 0.203125
vt -0.046875 0.050781
vt 0.140625 0.101562
vt 0.1875 0.203125
vt -0.139826 0.108134
vt -0.139826 0.094991
vt -0.153102 0.101562
vt -0.148775 0
vt -0.148775 0.101562
vt -0.142657 0
vt 0.137485 0.088867
vt -0.046875 0.101562
vt 0.09375 0.101562
vt 0.105185 0
vt 0.105185 0.101562
vt 0.111303 0
vt -0.09689 0.114258
vt 0.080711 0.101562
vt 0.139826 0.094991
vt 0.139826 0.108134
vt -0.137485 0.114258
vt -0.080711 0
vt -0.080711 0.101562
vt -0.074593 0
vt -0.111303 0
vt -0.111303 0.101562
vt -0.105185 0
vt -0.142657 0.101562
vt -0.1284 0.101562
vt -0.1284 0
vt -0.134519 0.101562
vt -0.134519 0
vt 0.100615 0.119516
vt 0.094549 0.108134
vt 0.111303 0.101562
vt 0.1284 0
vt 0.1284 0.101562
vt 0.134519 0
vt -0.100615 0.119516
vt -0.105185 0.101562
vt -0.074593 0.101562
vt 0.137485 0.114258
vt -0.13376 0.119516
vt -0.044827 0
vt -0.044827 0.101562
vt -0.038709 0
vt -0.038709 0.101562
vt 0.105469 0.123551
vt 0.09689 0.114258
vt 0.134519 0.101562
vt 0.142657 0
vt 0.142657 0.101562
vt 0.148775 0
vt 0.13376 0.119516
vt -0.128906 0.123551
vt -0.006097 0
vt -0.006097 0.101562
vt 0.000022 0
vt 0.000022 0.101562
vt 0.146983 0.101562
vt 0.153102 0.101562
vt 0.146983 0
vt 0.111121 0.126088
vt 0.148775 0.101562
vt -0.105469 0.123551
vt 0.128906 0.123551
vt -0.123254 0.126088
vt 0.038959 0
vt 0.032841 0
vt 0.038959 0.101562
vt 0.153102 0
vt 0.141084 0.101562
vt 0.147203 0.101562
vt 0.141084 0
vt 0.117188 0.126953
vt -0.111121 0.126088
vt 0.032841 0.101562
vt 0.123254 0.126088
vt -0.117188 0.126953
vt 0.07545 0
vt 0.069331 0
vt 0.07545 0.101562
vt 0.147203 0
vt 0.125363 0.101562
vt 0.131481 0.101562
vt 0.125363 0
vt 0.069331 0.101562
vt 0.107007 0
vt 0.100889 0
vt 0.107007 0.101562
vt 0.131481 0
vt 0.100889 0.101562
vn -0.5000001748438417 0 -0.8660253028382762
vn -0.2588189595935754 0 -0.965925849201117
vn 0.5000001748438417 0 0.8660253028382762
vn 0.2588189595935754 0 0.965925849201117
vn 0 -1 0
vn 0 1 0
vn -0.7071067811865476 0 -0.7071067811865476
vn 0.7071067811865476 0 0.7071067811865476
vn 0 0 -1
vn 0 0 1
vn -0.8660253028382762 0 -0.5000001748438417
vn 0.8660253028382762 0 0.5000001748438417
vn 0.2588189595935754 0 -0.965925849201117
vn -0.2588189595935754 0 0.965925849201117
vn -1 0 0
vn 1 0 0
vn 0.5000001748438417 0 -0.8660253028382762
vn -0.5000001748438417 0 0.8660253028382762
vn -0.965925849201117 0 -0.2588189595935754
vn 0.965925849201117 0 0.2588189595935754
vn 0.7071067811865476 0 -0.7071067811865476
vn -0.7071067811865476 0 0.7071067811865476
vn 0.8660253028382762 0 -0.5000001748438417
vn -0.8660253028382762 0 0.5000001748438417
vn -0.965925849201117 0 0.2588189595935754
vn 0.965925849201117 0 -0.2588189595935754
usemtl material_0_0
f 1/1/1 2/2/2 3/3/1
f 3/3/3 2/2/4 1/1/3
f 2/4/5 1/5/5 4/6/5
f 4/6/6 1/5/6 2/4/6
f 5/7/2 3/3/1 2/2/2
f 2/2/4 3/3/3 5/7/4
f 3/8/1 6/9/7 1/10/1
f 1/10/3 6/9/8 3/8/3
f 1/5/5 7/11/5 4/6/5
f 4/6/6 7/11/6 1/5/6
f 8/12/5 2/4/5 4/6/5
f 4/6/6 2/4/6 8/12/6
f 5/13/6 9/14/6 3/15/6
f 3/15/5 9/14/5 5/13/5
f 2/16/2 8/17/9 5/18/2
f 5/18/4 8/17/10 2/16/4
f 3/15/6 9/14/6 6/19/6
f 6/19/5 9/14/5 3/15/5
f 7/20/7 1/10/1 6/9/7
f 6/9/8 1/10/3 7/20/8
f 4/6/5 7/11/5 10/21/5
f 10/21/6 7/11/6 4/6/6
f 11/22/5 8/12/5 4/6/5
f 4/6/6 8/12/6 11/22/6
f 12/23/6 9/14/6 5/13/6
f 5/13/5 9/14/5 12/23/5
f 12/24/9 5/18/2 8/17/9
f 8/17/10 5/18/4 12/24/10
f 9/14/6 13/25/6 6/19/6
f 6/19/5 13/25/5 9/14/5
f 7/26/7 6/27/7 14/28/11
f 14/28/12 6/27/8 7/26/8
f 14/29/5 10/21/5 7/11/5
f 7/11/6 10/21/6 14/29/6
f 4/14/10 10/21/10 9/30/10
f 9/30/9 10/21/9 4/14/9
f 8/31/9 11/32/13 12/33/9
f 12/33/10 11/32/14 8/31/10
f 15/34/5 11/22/5 4/6/5
f 4/6/6 11/22/6 15/34/6
f 16/35/6 9/14/6 12/23/6
f 12/23/5 9/14/5 16/35/5
f 13/36/10 9/30/10 17/37/10
f 17/37/9 9/30/9 13/36/9
f 6/19/6 13/25/6 18/38/6
f 18/38/5 13/25/5 6/19/5
f 18/39/11 14/28/11 6/27/7
f 6/27/8 14/28/12 18/39/12
f 19/40/5 10/21/5 14/29/5
f 14/29/6 10/21/6 19/40/6
f 17/37/10 9/30/10 10/21/10
f 10/21/9 9/30/9 17/37/9
f 4/21/15 9/41/15 20/14/15
f 20/14/16 9/41/16 4/21/16
f 16/42/13 12/33/9 11/32/13
f 11/32/14 12/33/10 16/42/14
f 11/43/13 15/44/17 16/45/13
f 16/45/14 15/44/18 11/43/14
f 21/46/5 15/34/5 4/6/5
f 4/6/6 15/34/6 21/46/6
f 22/47/6 9/14/6 16/35/6
f 16/35/5 9/14/5 22/47/5
f 13/41/16 17/48/16 23/49/16
f 23/49/15 17/48/15 13/41/15
f 23/50/6 18/38/6 13/25/6
f 13/25/5 18/38/5 23/50/5
f 14/51/11 18/52/11 19/53/19
f 19/53/20 18/52/12 14/51/12
f 24/54/5 10/21/5 19/40/5
f 19/40/6 10/21/6 24/54/6
f 17/37/10 10/21/10 25/48/10
f 25/48/9 10/21/9 17/37/9
f 26/30/15 20/14/15 9/41/15
f 9/41/16 20/14/16 26/30/16
f 20/55/5 27/56/5 4/6/5
f 4/6/6 27/56/6 20/55/6
f 22/57/17 16/45/13 15/44/17
f 15/44/18 16/45/14 22/57/18
f 15/58/17 21/59/21 22/60/17
f 22/60/18 21/59/22 15/58/18
f 28/61/5 21/46/5 4/6/5
f 4/6/6 21/46/6 28/61/6
f 29/62/6 9/14/6 22/47/6
f 22/47/5 9/14/5 29/62/5
f 30/63/16 23/49/16 17/48/16
f 17/48/15 23/49/15 30/63/15
f 31/64/6 18/38/6 23/50/6
f 23/50/5 18/38/5 31/64/5
f 31/65/19 19/53/19 18/52/11
f 18/52/12 19/53/20 31/65/20
f 24/54/5 32/66/5 10/21/5
f 10/21/6 32/66/6 24/54/6
f 19/67/19 31/68/19 24/69/15
f 24/69/16 31/68/20 19/67/20
f 25/48/16 10/21/16 33/63/16
f 33/63/15 10/21/15 25/48/15
f 25/21/6 33/70/6 17/25/6
f 17/25/5 33/70/5 25/21/5
f 26/49/9 30/71/9 20/6/9
f 20/6/10 30/71/10 26/49/10
f 9/14/6 34/72/6 26/73/6
f 26/73/5 34/72/5 9/14/5
f 27/56/5 20/55/5 35/74/5
f 35/74/6 20/55/6 27/56/6
f 27/56/5 36/75/5 4/6/5
f 4/6/6 36/75/6 27/56/6
f 29/76/21 22/60/17 21/59/21
f 21/59/22 22/60/18 29/76/22
f 28/77/23 37/78/23 21/79/21
f 21/79/22 37/78/24 28/77/24
f 36/75/5 28/61/5 4/6/5
f 4/6/6 28/61/6 36/75/6
f 37/80/6 9/14/6 29/62/6
f 29/62/5 9/14/5 37/80/5
f 23/81/9 30/71/9 26/49/9
f 26/49/10 30/71/10 23/81/10
f 30/50/6 17/25/6 33/70/6
f 33/70/5 17/25/5 30/50/5
f 38/82/6 31/64/6 23/50/6
f 23/50/5 31/64/5 38/82/5
f 24/83/15 38/84/15 32/85/25
f 32/85/26 38/84/16 24/83/16
f 32/66/5 39/86/5 10/21/5
f 10/21/6 39/86/6 32/66/6
f 38/87/15 24/69/15 31/68/19
f 31/68/20 24/69/16 38/87/16
f 40/6/16 33/63/16 10/21/16
f 10/21/15 33/63/15 40/6/15
f 30/71/9 33/48/9 20/6/9
f 20/6/10 33/48/10 30/71/10
f 34/72/6 9/14/6 41/88/6
f 41/88/5 9/14/5 34/72/5
f 34/72/6 42/89/6 26/73/6
f 26/73/5 42/89/5 34/72/5
f 35/74/5 20/55/5 43/90/5
f 43/90/6 20/55/6 35/74/6
f 35/91/20 42/92/20 27/93/16
f 27/93/15 42/92/19 35/91/19
f 27/94/16 34/95/16 36/96/26
f 36/96/25 34/95/15 27/94/15
f 29/97/21 21/79/21 37/78/23
f 37/78/24 21/79/22 29/97/22
f 37/98/23 28/99/23 41/100/26
f 41/100/25 28/99/24 37/98/24
f 36/101/26 41/100/26 28/99/23
f 28/99/24 41/100/25 36/101/25
f 41/88/6 9/14/6 37/80/6
f 37/80/5 9/14/5 41/88/5
f 26/73/6 44/102/6 23/50/6
f 23/50/5 44/102/5 26/73/5
f 38/82/6 23/50/6 45/103/6
f 45/103/5 23/50/5 38/82/5
f 45/104/25 32/85/25 38/84/15
f 38/84/16 32/85/26 45/104/26
f 32/105/25 45/106/25 39/107/24
f 39/107/23 45/106/26 32/105/26
f 39/86/5 46/108/5 10/21/5
f 10/21/6 46/108/6 39/86/6
f 40/21/9 20/6/9 33/48/9
f 33/48/10 20/6/10 40/21/10
f 10/21/5 46/108/5 40/70/5
f 40/70/6 46/108/6 10/21/6
f 41/109/26 36/96/26 34/95/16
f 34/95/15 36/96/25 41/109/25
f 34/110/16 27/93/16 42/92/20
f 42/92/19 27/93/15 34/110/15
f 42/89/6 47/111/6 26/73/6
f 26/73/5 47/111/5 42/89/5
f 43/90/5 20/55/5 48/112/5
f 48/112/6 20/55/6 43/90/6
f 43/113/12 47/114/12 35/115/20
f 35/115/19 47/114/11 43/113/11
f 42/116/20 35/115/20 47/114/12
f 47/114/11 35/115/19 42/116/19
f 49/117/6 44/102/6 26/73/6
f 26/73/5 44/102/5 49/117/5
f 50/118/6 23/50/6 44/102/6
f 44/102/5 23/50/5 50/118/5
f 45/103/6 23/50/6 50/118/6
f 50/118/5 23/50/5 45/103/5
f 50/119/24 39/107/24 45/106/25
f 45/106/26 39/107/23 50/119/23
f 39/120/24 50/121/24 46/122/22
f 46/122/21 50/121/23 39/120/23
f 20/55/5 40/70/5 46/108/5
f 46/108/6 40/70/6 20/55/6
f 47/111/6 51/123/6 26/73/6
f 26/73/5 51/123/5 47/111/5
f 48/112/5 20/55/5 52/124/5
f 52/124/6 20/55/6 48/112/6
f 48/125/8 51/126/8 43/127/12
f 43/127/11 51/126/7 48/125/7
f 47/128/12 43/127/12 51/126/8
f 51/126/7 43/127/11 47/128/11
f 44/129/22 49/130/18 46/131/22
f 46/131/21 49/130/17 44/129/21
f 53/132/6 49/117/6 26/73/6
f 26/73/5 49/117/5 53/132/5
f 44/133/22 46/122/22 50/121/24
f 50/121/23 46/122/21 44/133/21
f 54/134/5 20/55/5 46/108/5
f 46/108/6 20/55/6 54/134/6
f 51/123/6 55/135/6 26/73/6
f 26/73/5 55/135/5 51/123/5
f 52/124/5 20/55/5 56/136/5
f 56/136/6 20/55/6 52/124/6
f 48/137/8 52/138/3 51/139/8
f 51/139/7 52/138/1 48/137/7
f 54/140/18 46/131/22 49/130/18
f 49/130/17 46/131/21 54/140/17
f 49/141/18 53/142/14 54/143/18
f 54/143/17 53/142/13 49/141/17
f 57/144/6 53/132/6 26/73/6
f 26/73/5 53/132/5 57/144/5
f 58/145/5 20/55/5 54/134/5
f 54/134/6 20/55/6 58/145/6
f 55/146/3 51/139/8 52/138/3
f 52/138/1 51/139/7 55/146/1
f 55/135/6 59/147/6 26/73/6
f 26/73/5 59/147/5 55/135/5
f 56/136/5 20/55/5 60/148/5
f 60/148/6 20/55/6 56/136/6
f 52/149/3 56/150/4 55/151/3
f 55/151/1 56/150/2 52/149/1
f 58/152/14 54/143/18 53/142/14
f 53/142/13 54/143/17 58/152/13
f 53/153/14 57/154/10 58/155/14
f 58/155/13 57/154/9 53/153/13
f 59/147/6 57/144/6 26/73/6
f 26/73/5 57/144/5 59/147/5
f 60/148/5 20/55/5 58/145/5
f 58/145/6 20/55/6 60/148/6
f 59/156/4 55/151/3 56/150/4
f 56/150/2 55/151/1 59/156/2
f 56/157/4 60/158/10 59/159/4
f 59/159/2 60/158/9 56/157/2
f 60/160/10 58/155/14 57/154/10
f 57/154/9 58/155/13 60/160/9
f 57/161/10 59/159/4 60/158/10
f 60/158/9 59/159/2 57/161/9
