# SSTK version 0.8.0
# 22
mtllib original-22.mtl
o drawer_side_rails1/drawer_side_rails/mesh24/mesh24-geometry#mesh24-geometry
v -0.295369 0.002920 0.327448
v -0.295369 -0.024560 -0.313751
v -0.295369 -0.024560 0.327448
v -0.295369 0.002920 -0.313751
v -0.240409 -0.024560 -0.313751
v -0.240409 0.002920 0.327448
v -0.240409 0.002920 -0.313751
v -0.240409 -0.024560 0.327448
vt 0 0.101562
vt -2.1875 0
vt 0 0
vt -2.1875 0.101563
vt 0 2.369792
vt -0.1875 2.369792
vt 0.1875 0.101562
vt 0.1875 2.369792
vt -0.1875 0
vt 0.1875 0
vt -0.1875 0.101562
vt 2.1875 0.101563
vt 2.1875 0
vt -0.1875 2.019231
vt 0 2.019231
vt 0.1875 2.019231
vn -1 0 0
vn 1 0 0
vn 0 1 0
vn 0 0 1
vn 0 0 -1
vn 0 -1 0
usemtl material_0_0
f 1/1/1 2/2/1 3/3/1
f 2/2/1 1/1/1 4/4/1
f 3/3/2 2/2/2 1/1/2
f 4/4/2 1/1/2 2/2/2
f 2/5/3 3/3/3 5/6/3
f 3/3/4 6/7/4 1/1/4
f 1/1/5 6/7/5 3/3/5
f 4/5/6 7/8/6 1/3/6
f 4/1/5 5/9/5 2/3/5
f 2/3/4 5/9/4 4/1/4
f 8/9/3 5/6/3 3/3/3
f 6/7/4 3/3/4 8/10/4
f 8/10/5 3/3/5 6/7/5
f 6/10/6 1/3/6 7/8/6
f 5/9/5 4/1/5 7/11/5
f 7/11/4 4/1/4 5/9/4
f 7/12/2 8/3/2 5/13/2
f 5/13/1 8/3/1 7/12/1
f 8/3/2 7/12/2 6/1/2
f 6/1/1 7/12/1 8/3/1
usemtl material_1_0
f 5/14/6 3/3/6 2/15/6
f 1/3/3 7/16/3 4/15/3
f 3/3/6 5/14/6 8/9/6
f 7/16/3 1/3/3 6/10/3
