# SSTK version 0.8.0
# 21
mtllib original-21.mtl
o drawer_side_guide2/drawer_side_guide12/mesh22/mesh22-geometry#mesh22-geometry
v 0.235910 0.021240 -0.327491
v 0.226750 0.021240 -0.327491
v 0.235910 0.112840 -0.327491
v 0.235910 0.021240 -0.313751
v 0.226750 0.112840 -0.327491
v 0.235910 0.112840 -0.313751
v 0.226750 0.021240 -0.313751
v 0.226750 0.112840 -0.313751
v 0.245070 0.112840 -0.313751
v 0.217590 0.002920 -0.313751
v 0.226750 0.112840 0.327448
v 0.245070 0.112840 0.327448
v 0.245070 0.002920 -0.313751
v 0.217590 0.112840 -0.313751
v 0.226750 0.112840 0.341188
v 0.217590 0.112840 0.327448
v 0.235910 0.112840 0.327448
v 0.245070 0.002920 0.327448
v 0.226750 0.021240 0.327448
v 0.235910 0.112840 0.341188
v 0.235910 0.021240 0.327448
v 0.217590 0.002920 0.327448
v 0.226750 0.021240 0.341188
v 0.235910 0.021240 0.341188
vt -0.03125 0.067708
vt -0.0625 0.067708
vt -0.03125 0.40625
vt -0.03125 2.471354
vt -0.03125 2.420573
vt -0.0625 2.471354
vt -0.0625 0.40625
vt -2.28125 0.40625
vt -2.234375 0.40625
vt -2.28125 0.067708
vt -2.234375 0.067708
vt -0.0625 2.420573
vt 0.03125 2.420573
vt 0.0625 2.471354
vt 0.03125 2.471354
vt 2.28125 0.40625
vt 2.28125 0.067708
vt 2.234375 0.40625
vt 0 0.40625
vt 2.234375 0.067708
vt -0.09375 0
vt 0.0625 0.050781
vt 0.0625 2.420573
vt 0 0.050781
vt 0 2.420573
vt 0 0
vt -0.09375 0.40625
vt 0.0625 0
vt 0.09375 0.050781
vt 0.03125 0.050781
vt -0.046875 0.40625
vt -2.234375 0
vt 0.09375 2.420573
vt -0.09375 2.420573
vt 2.234375 0
vt 0.046875 0.40625
vt 0.046875 0.067708
vt 0.03125 0
vt 0.0625 0.40625
vt 0.09375 0.40625
vt 0.0625 0.067708
vt 0.03125 0.40625
vt 0.03125 0.067708
vt -0.046875 0
vt -0.09375 0.050781
vt 0.046875 0
vt 0 0.067708
vt 0.09375 0
vt -0.046875 0.067708
vt -0.0625 0
vt -0.0625 0.050781
vt -0.03125 0
vt -0.03125 0.050781
vt 0.03125 2.105769
vt 0.0625 2.105769
vt 0.03125 2.0625
vt 0.0625 0.043269
vt 0.0625 2.0625
vt 0 2.0625
vt 0 0.043269
vt 0.09375 0.043269
vt 0.03125 0.043269
vt 0.09375 2.0625
vt -0.09375 2.0625
vt -0.09375 0.043269
vn 0 0 -1
vn 0 0 1
vn 0 -1 0
vn 0 1 0
vn 1 0 0
vn -1 0 0
usemtl material_0_0
f 1/1/1 2/2/1 3/3/1
f 3/3/2 2/2/2 1/1/2
f 1/4/3 4/5/3 2/6/3
f 2/6/4 4/5/4 1/4/4
f 5/7/1 3/3/1 2/2/1
f 2/2/2 3/3/2 5/7/2
f 3/8/5 6/9/5 1/10/5
f 1/10/6 6/9/6 3/8/6
f 4/11/5 1/10/5 6/9/5
f 6/9/6 1/10/6 4/11/6
f 7/12/3 2/6/3 4/5/3
f 4/5/4 2/6/4 7/12/4
f 6/13/3 5/14/3 3/15/3
f 5/16/6 2/17/6 8/18/6
f 8/18/5 2/17/5 5/16/5
f 6/3/1 9/19/1 4/1/1
f 4/1/2 9/19/2 6/3/2
f 7/20/6 8/18/6 2/17/6
f 2/17/5 8/18/5 7/20/5
f 4/1/1 10/21/1 7/2/1
f 7/2/2 10/21/2 4/1/2
f 5/14/3 6/13/3 11/22/3
f 5/14/3 11/22/3 8/23/3
f 12/24/3 6/13/3 9/25/3
f 9/19/1 13/26/1 4/1/1
f 4/1/2 13/26/2 9/19/2
f 8/7/1 7/2/1 14/27/1
f 14/27/2 7/2/2 8/7/2
f 10/21/1 4/1/1 13/26/1
f 13/26/2 4/1/2 10/21/2
f 14/27/1 7/2/1 10/21/1
f 10/21/2 7/2/2 14/27/2
f 6/13/3 15/28/3 11/22/3
f 8/23/3 11/22/3 16/29/3
f 6/13/3 12/24/3 17/30/3
f 9/9/5 12/31/5 13/32/5
f 13/32/6 12/31/6 9/9/6
f 8/23/3 16/29/3 14/33/3
f 10/34/4 18/24/4 13/25/4
f 14/18/6 10/35/6 16/36/6
f 16/36/5 10/35/5 14/18/5
f 11/36/6 19/37/6 15/19/6
f 15/19/5 19/37/5 11/36/5
f 6/13/3 20/38/3 15/28/3
f 11/39/2 16/40/2 19/41/2
f 19/41/1 16/40/1 11/39/1
f 17/42/2 21/43/2 12/19/2
f 12/19/1 21/43/1 17/42/1
f 6/13/3 17/30/3 20/38/3
f 18/44/5 13/32/5 12/31/5
f 12/31/6 13/32/6 18/44/6
f 18/24/4 10/34/4 22/45/4
f 22/46/6 16/36/6 10/35/6
f 10/35/5 16/36/5 22/46/5
f 23/47/6 15/19/6 19/37/6
f 19/37/5 15/19/5 23/47/5
f 15/39/2 23/41/2 20/42/2
f 20/42/1 23/41/1 15/39/1
f 16/40/2 22/48/2 19/41/2
f 19/41/1 22/48/1 16/40/1
f 17/31/5 20/19/5 21/49/5
f 21/49/6 20/19/6 17/31/6
f 12/19/2 21/43/2 18/26/2
f 18/26/1 21/43/1 12/19/1
f 22/48/2 18/26/2 21/43/2
f 21/43/1 18/26/1 22/48/1
f 23/50/3 19/51/3 24/52/3
f 24/52/4 19/51/4 23/50/4
f 24/43/2 20/42/2 23/41/2
f 23/41/1 20/42/1 24/43/1
f 21/43/2 19/41/2 22/48/2
f 22/48/1 19/41/1 21/43/1
f 24/47/5 21/49/5 20/19/5
f 20/19/6 21/49/6 24/47/6
f 21/53/3 24/52/3 19/51/3
f 19/51/4 24/52/4 21/53/4
usemtl material_1_0
f 3/54/4 5/55/4 6/56/4
f 11/57/4 6/56/4 5/55/4
f 8/58/4 11/57/4 5/55/4
f 9/59/4 6/56/4 12/60/4
f 11/57/4 15/28/4 6/56/4
f 16/61/4 11/57/4 8/58/4
f 17/62/4 12/60/4 6/56/4
f 14/63/4 16/61/4 8/58/4
f 13/59/3 18/60/3 10/64/3
f 15/28/4 20/38/4 6/56/4
f 20/38/4 17/62/4 6/56/4
f 22/65/3 10/64/3 18/60/3
