# SSTK version 0.8.0
# 20
mtllib original-20.mtl
o drawer_side_guide1/drawer_side_guide/mesh20/mesh20-geometry#mesh20-geometry
v -0.286209 0.112840 -0.327491
v -0.277049 0.021240 -0.327491
v -0.286209 0.021240 -0.327491
v -0.277049 0.112840 -0.327491
v -0.286209 0.021240 -0.313751
v -0.286209 0.112840 -0.313751
v -0.277049 0.112840 -0.313751
v -0.277049 0.021240 -0.313751
v -0.277049 0.112840 0.327448
v -0.267889 0.002920 -0.313751
v -0.295369 0.112840 -0.313751
v -0.277049 0.112840 0.341188
v -0.267889 0.112840 -0.313751
v -0.267889 0.112840 0.327448
v -0.295369 0.002920 -0.313751
v -0.295369 0.112840 0.327448
v -0.286209 0.112840 0.341188
v -0.277049 0.021240 0.327448
v -0.295369 0.002920 0.327448
v -0.286209 0.112840 0.327448
v -0.277049 0.021240 0.341188
v -0.267889 0.002920 0.327448
v -0.286209 0.021240 0.327448
v -0.286209 0.021240 0.341188
vt -0.03125 0.40625
vt -0.0625 0.067708
vt -0.03125 0.067708
vt -0.0625 0.40625
vt -0.0625 2.471354
vt -0.03125 2.420573
vt -0.03125 2.471354
vt -2.28125 0.067708
vt -2.234375 0.40625
vt -2.28125 0.40625
vt 0.03125 2.471354
vt 0.0625 2.471354
vt 0.03125 2.420573
vt 2.234375 0.40625
vt 2.28125 0.067708
vt 2.28125 0.40625
vt -0.0625 2.420573
vt -2.234375 0.067708
vt 0.0625 0.050781
vt 2.234375 0.067708
vt 0.0625 2.420573
vt -0.09375 0
vt 0 0.40625
vt 0.0625 0
vt -0.09375 0.40625
vt 0.09375 0.050781
vt 0 0
vt 0 2.420573
vt 0 0.050781
vt 0.03125 0
vt 0.046875 0.067708
vt 0.046875 0.40625
vt 0.09375 2.420573
vt 0.0625 0.067708
vt 0.09375 0.40625
vt 0.0625 0.40625
vt 2.234375 0
vt -0.09375 2.420573
vt -2.234375 0
vt -0.046875 0.40625
vt 0.03125 0.050781
vt 0.03125 0.40625
vt 0 0.067708
vt 0.09375 0
vt 0.046875 0
vt -0.09375 0.050781
vt -0.046875 0
vt 0.03125 0.067708
vt -0.046875 0.067708
vt -0.03125 0
vt -0.0625 0.050781
vt -0.0625 0
vt -0.03125 0.050781
vt 0.03125 2.0625
vt 0.0625 2.105769
vt 0.03125 2.105769
vt 0.0625 0.043269
vt 0.0625 2.0625
vt 0.09375 0.043269
vt 0 0.043269
vt 0 2.0625
vt 0.09375 2.0625
vt -0.09375 2.0625
vt 0.03125 0.043269
vt -0.09375 0.043269
vn 0 0 -1
vn 0 0 1
vn 0 -1 0
vn 0 1 0
vn -1 0 0
vn 1 0 0
usemtl material_0_0
f 1/1/1 2/2/1 3/3/1
f 2/2/1 1/1/1 4/4/1
f 3/3/2 2/2/2 1/1/2
f 4/4/2 1/1/2 2/2/2
f 2/5/3 5/6/3 3/7/3
f 3/7/4 5/6/4 2/5/4
f 3/8/5 6/9/5 1/10/5
f 1/10/6 6/9/6 3/8/6
f 1/11/3 4/12/3 6/13/3
f 7/14/6 2/15/6 4/16/6
f 4/16/5 2/15/5 7/14/5
f 5/6/3 2/5/3 8/17/3
f 8/17/4 2/5/4 5/6/4
f 6/9/5 3/8/5 5/18/5
f 5/18/6 3/8/6 6/9/6
f 9/19/3 6/13/3 4/12/3
f 2/15/6 7/14/6 8/20/6
f 8/20/5 7/14/5 2/15/5
f 7/21/3 9/19/3 4/12/3
f 8/2/1 10/22/1 5/3/1
f 5/3/2 10/22/2 8/2/2
f 5/3/1 11/23/1 6/1/1
f 6/1/2 11/23/2 5/3/2
f 9/19/3 12/24/3 6/13/3
f 13/25/1 8/2/1 7/4/1
f 7/4/2 8/2/2 13/25/2
f 14/26/3 9/19/3 7/21/3
f 10/22/1 8/2/1 13/25/1
f 13/25/2 8/2/2 10/22/2
f 15/27/1 5/3/1 10/22/1
f 10/22/2 5/3/2 15/27/2
f 5/3/1 15/27/1 11/23/1
f 11/23/2 15/27/2 5/3/2
f 11/28/3 6/13/3 16/29/3
f 12/24/3 17/30/3 6/13/3
f 12/23/6 18/31/6 9/32/6
f 9/32/5 18/31/5 12/23/5
f 13/33/3 14/26/3 7/21/3
f 18/34/2 14/35/2 9/36/2
f 9/36/1 14/35/1 18/34/1
f 14/32/6 10/37/6 13/14/6
f 13/14/5 10/37/5 14/32/5
f 15/28/4 19/29/4 10/38/4
f 15/39/5 16/40/5 11/9/5
f 11/9/6 16/40/6 15/39/6
f 20/41/3 16/29/3 6/13/3
f 17/30/3 20/41/3 6/13/3
f 17/42/2 21/34/2 12/36/2
f 12/36/1 21/34/1 17/42/1
f 18/31/6 12/23/6 21/43/6
f 21/43/5 12/23/5 18/31/5
f 18/34/2 22/44/2 14/35/2
f 14/35/1 22/44/1 18/34/1
f 10/37/6 14/32/6 22/45/6
f 22/45/5 14/32/5 10/37/5
f 22/46/4 10/38/4 19/29/4
f 16/40/5 15/39/5 19/47/5
f 19/47/6 15/39/6 16/40/6
f 16/23/2 23/48/2 20/42/2
f 20/42/1 23/48/1 16/23/1
f 23/49/5 17/23/5 20/40/5
f 20/40/6 17/23/6 23/49/6
f 21/34/2 17/42/2 24/48/2
f 24/48/1 17/42/1 21/34/1
f 24/50/3 18/51/3 21/52/3
f 21/52/4 18/51/4 24/50/4
f 22/44/2 18/34/2 23/48/2
f 23/48/1 18/34/1 22/44/1
f 23/48/2 19/27/2 22/44/2
f 22/44/1 19/27/1 23/48/1
f 19/27/2 23/48/2 16/23/2
f 16/23/1 23/48/1 19/27/1
f 17/23/5 23/49/5 24/43/5
f 24/43/6 23/49/6 17/23/6
f 18/51/3 24/50/3 23/53/3
f 23/53/4 24/50/4 18/51/4
usemtl material_1_0
f 6/54/4 4/55/4 1/56/4
f 4/55/4 6/54/4 9/57/4
f 4/55/4 9/57/4 7/58/4
f 6/54/4 12/24/4 9/57/4
f 7/58/4 9/57/4 14/59/4
f 16/60/4 6/54/4 11/61/4
f 6/54/4 17/30/4 12/24/4
f 7/58/4 14/59/4 13/62/4
f 10/63/3 19/60/3 15/61/3
f 6/54/4 16/60/4 20/64/4
f 6/54/4 20/64/4 17/30/4
f 19/60/3 10/63/3 22/65/3
