# SSTK version 0.8.0
# 18
mtllib original-18.mtl
o mesh16/mesh16-geometry#mesh16-geometry
v 0.282254 -0.760977 0.471398
v 0.295020 -0.760977 0.470122
v 0.295020 -0.812041 0.470122
v 0.301403 -0.812041 0.480335
v 0.282254 -0.812041 0.471398
v 0.301403 -0.760977 0.480335
v 0.277148 -0.760977 0.482888
v 0.296296 -0.812041 0.491824
v 0.277148 -0.812041 0.482888
v 0.296296 -0.760977 0.491824
v 0.283531 -0.760977 0.493100
v 0.283531 -0.812041 0.493100
vn -0.09950401605074537 0 -0.9950371605069698
vn 0.09950401605074537 0 0.9950371605069698
vn 0.8479981916454931 0 -0.5299991197784897
vn -0.8479981916454931 0 0.5299991197784897
vn -0.9138117960427128 0 -0.4061379093524656
vn 0.9138117960427128 0 0.4061379093524656
usemtl material_0_0
f 1//1 2//1 3//1
f 3//2 2//2 1//2
f 2//3 4//3 3//3
f 3//4 4//4 2//4
f 1//1 3//1 5//1
f 5//2 3//2 1//2
f 6//3 4//3 2//3
f 2//4 4//4 6//4
f 1//5 5//5 7//5
f 7//6 5//6 1//6
f 6//6 8//6 4//6
f 4//5 8//5 6//5
f 7//5 5//5 9//5
f 9//6 5//6 7//6
f 10//6 8//6 6//6
f 6//5 8//5 10//5
f 7//4 9//4 11//4
f 11//3 9//3 7//3
f 12//2 8//2 10//2
f 10//1 8//1 12//1
f 11//4 9//4 12//4
f 12//3 9//3 11//3
f 12//2 10//2 11//2
f 11//1 10//1 12//1
