# SSTK version 0.8.0
# 32
mtllib original-32.mtl
o mesh30/mesh30-geometry#mesh30-geometry
v -0.412210 -0.799275 -0.090300
v -0.423699 -0.786509 -0.052002
v -0.399444 -0.786509 -0.062215
v -0.435188 -0.799275 -0.081364
v -0.412210 -0.799275 -0.023917
v -0.387954 -0.799275 -0.034130
v -0.440294 -0.829913 -0.092853
v -0.382848 -0.829913 -0.022641
v -0.416039 -0.829913 -0.103066
v -0.407103 -0.829913 -0.012428
v -0.387954 -0.860551 -0.034130
v -0.412210 -0.860551 -0.090300
v -0.412210 -0.860551 -0.023917
v -0.435188 -0.860551 -0.081364
v -0.423699 -0.873317 -0.052002
v -0.399444 -0.873317 -0.062215
vn -0.14842703850539263 0.9239602396965684 -0.35251509145053445
vn 0.14842703850539263 -0.9239602396965684 0.35251509145053445
vn -0.13602396520589027 0.9269057629030976 -0.34977591052943213
vn 0.13602396520589027 -0.9269057629030976 0.34977591052943213
vn 0.15048902106161718 0.9217431290021076 0.35741105002128826
vn -0.15048902106161718 -0.9217431290021076 -0.35741105002128826
vn 0.9170967079987474 -0.04585498539988961 -0.3960188739086007
vn -0.9170967079987474 0.04585498539988961 0.3960188739086007
vn -0.3353647717109057 0.3792817418157998 -0.8623664129709974
vn 0.3353647717109057 -0.3792817418157998 0.8623664129709974
vn 0.9180538283473605 0.004346999187222076 -0.3964319258773458
vn -0.9180538283473605 -0.004346999187222076 0.3964319258773458
vn -0.35616905866728177 0.3969800653895693 -0.8459021393348972
vn 0.35616905866728177 -0.3969800653895693 0.8459021393348972
vn 0.3590140051969073 0.37958300549465385 0.8526580123426513
vn -0.3590140051969073 -0.37958300549465385 -0.8526580123426513
vn 0.9168303292860895 -0.0030810011065633127 -0.3992651433988968
vn -0.9168303292860895 0.0030810011065633127 0.3992651433988968
vn 0.9308816796371251 0.03514998790313375 -0.3636258748581767
vn -0.9308816796371251 -0.03514998790313375 0.3636258748581767
vn -0.35616905866728177 -0.3969800653895693 -0.8459021393348972
vn 0.35616905866728177 0.3969800653895693 0.8459021393348972
vn 0.3590140051969073 -0.37958300549465385 0.8526580123426513
vn -0.3590140051969073 0.37958300549465385 -0.8526580123426513
vn 0.9168973765249019 -0.050360020680397105 -0.3959331625903825
vn -0.9168973765249019 0.050360020680397105 0.3959331625903825
vn -0.3353647717109057 -0.3792817418157998 -0.8623664129709974
vn 0.3353647717109057 0.3792817418157998 0.8623664129709974
vn 0.15048902106161718 -0.9217431290021076 0.35741105002128826
vn -0.15048902106161718 0.9217431290021076 -0.35741105002128826
vn 0.9170967079987474 0.04585498539988961 -0.3960188739086007
vn -0.9170967079987474 -0.04585498539988961 0.3960188739086007
vn -0.13602396520589027 -0.9269057629030976 -0.34977591052943213
vn 0.13602396520589027 0.9269057629030976 0.34977591052943213
vn -0.14842703850539263 -0.9239602396965684 -0.35251509145053445
vn 0.14842703850539263 0.9239602396965684 0.35251509145053445
usemtl material_0_0
f 1//1 2//1 3//1
f 3//2 2//2 1//2
f 1//3 4//3 2//3
f 2//4 4//4 1//4
f 3//5 2//5 5//5
f 5//6 2//6 3//6
f 3//7 6//7 1//7
f 1//8 6//8 3//8
f 7//9 4//9 1//9
f 1//10 4//10 7//10
f 3//5 5//5 6//5
f 6//6 5//6 3//6
f 6//11 8//11 1//11
f 1//12 8//12 6//12
f 7//13 1//13 9//13
f 9//14 1//14 7//14
f 5//15 10//15 6//15
f 6//16 10//16 5//16
f 10//15 8//15 6//15
f 6//16 8//16 10//16
f 1//17 8//17 11//17
f 11//18 8//18 1//18
f 1//19 11//19 9//19
f 9//20 11//20 1//20
f 7//21 9//21 12//21
f 12//22 9//22 7//22
f 13//23 8//23 10//23
f 10//24 8//24 13//24
f 13//23 11//23 8//23
f 8//24 11//24 13//24
f 9//25 11//25 12//25
f 12//26 11//26 9//26
f 7//27 12//27 14//27
f 14//28 12//28 7//28
f 15//29 11//29 13//29
f 13//30 11//30 15//30
f 11//31 16//31 12//31
f 12//32 16//32 11//32
f 12//33 15//33 14//33
f 14//34 15//34 12//34
f 16//29 11//29 15//29
f 15//30 11//30 16//30
f 12//35 16//35 15//35
f 15//36 16//36 12//36
