# SSTK version 0.8.0
# 7
mtllib original-7.mtl
o mesh6/mesh6-geometry#mesh6-geometry
v -0.004978 -0.715020 -0.372426
v -0.004978 -0.706084 -0.349447
v 0.011617 -0.699701 -0.349447
v -0.011361 -0.726509 -0.360937
v 0.011617 -0.684382 0.047571
v 0.011617 -0.709914 -0.377532
v -0.011361 -0.737999 -0.377532
v -0.011361 -0.722680 -0.349447
v -0.004978 -0.690765 0.047571
v 0.028213 -0.706084 -0.349447
v -0.004978 -0.737999 -0.392851
v 0.028213 -0.715020 -0.372426
v -0.011361 -0.732892 0.047571
v -0.011361 -0.720126 0.047571
v 0.028213 -0.690765 0.047571
v 0.011617 -0.737999 -0.400511
v 0.028213 -0.737999 -0.392851
v -0.011361 -0.762254 -0.389021
v -0.011361 -0.745658 0.047571
v -0.011361 -0.707360 0.047571
v 0.034596 -0.707360 0.047571
v 0.034596 -0.726509 -0.360937
v -0.004978 -0.766084 -0.404341
v 0.034596 -0.737999 -0.377532
v 0.034596 -0.722680 -0.349447
v 0.028213 -0.766084 -0.404341
v 0.011617 -0.767360 -0.412000
v 0.034596 -0.762254 -0.389021
v 0.034596 -0.720126 0.047571
v 0.034596 -0.732892 0.047571
v 0.034596 -0.745658 0.047571
vt -0.221839 -0.178004
vt -0.216345 -0.171673
vt -0.220357 -0.167151
vt -0.308777 0.033123
vt -0.316497 0.029856
vt -0.312303 0.025656
vt -0.31124 -0.013913
vt -0.177494 0.006551
vt -0.311803 -0.007894
vt -0.244025 -0.157931
vt -0.239017 -0.161508
vt -0.236809 -0.150778
vt -0.311943 0.027878
vt -0.313155 0.019675
vt -0.307653 0.023777
vt -0.310107 0.036925
vt -0.313705 0.029492
vt -0.309831 0.030886
vt -0.176931 0.000532
vt 0.311803 -0.007894
vt 0.177494 0.006551
vt 0.31124 -0.013913
vt -0.156512 -0.128264
vt -0.162263 -0.126075
vt -0.160002 -0.138117
vt 0.244025 -0.157931
vt 0.236809 -0.150778
vt 0.239017 -0.161508
vt -0.294304 0.009279
vt -0.300714 0.001022
vt -0.295072 0.001022
vt -0.317274 0.049913
vt -0.322917 0.046007
vt -0.178385 0.047743
vt -0.178385 0.052083
vt -0.313368 0.051215
vt -0.178282 0.054955
vt -0.31325 0.049374
vt -0.313218 0.043329
vt 0.176931 0.000532
vt 0.221839 -0.178004
vt 0.220357 -0.167151
vt 0.216345 -0.171673
vt -0.13238 -0.142141
vt -0.135321 -0.130246
vt -0.138595 -0.142141
vt 0.162263 -0.126075
vt 0.156512 -0.128264
vt 0.160002 -0.138117
vt -0.300714 0.021708
vt -0.298678 0.013326
vt -0.295072 0.021708
vt -0.178385 0.043403
vt -0.178385 0.056424
vt -0.17825 0.048909
vt 0.178282 0.054955
vt 0.17825 0.048909
vt 0.31325 0.049374
vt 0.308777 0.033123
vt 0.312303 0.025656
vt 0.316497 0.029856
vt 0.135321 -0.130246
vt 0.13238 -0.142141
vt 0.138595 -0.142141
vt -0.13238 -0.061431
vt -0.138595 -0.061431
vt -0.134017 -0.071617
vt 0.294304 0.009279
vt 0.295072 0.001022
vt 0.300714 0.001022
vt -0.295254 0.021025
vt -0.298797 0.011335
vt -0.293159 0.012657
vt -0.326823 0.03776
vt 0.313218 0.043329
vt 0.310107 0.036925
vt 0.309831 0.030886
vt 0.313705 0.029492
vt 0.311943 0.027878
vt 0.307653 0.023777
vt 0.313155 0.019675
vt 0.138595 -0.061431
vt 0.13238 -0.061431
vt 0.134017 -0.071617
vt -0.126351 -0.069529
vt -0.131016 -0.059383
vt -0.132563 -0.069991
vt 0.295072 0.021708
vt 0.298678 0.013326
vt 0.300714 0.021708
vt 0.178385 0.056424
vt 0.178385 0.052083
vt 0.313368 0.051215
vt 0.317274 0.049913
vt 0.322917 0.046007
vt 0.295254 0.021025
vt 0.293159 0.012657
vt 0.298797 0.011335
vt 0.131016 -0.059383
vt 0.126351 -0.069529
vt 0.132563 -0.069991
vt 0.178385 0.047743
vt 0.326823 0.03776
vt 0.178385 0.043403
vt -7.932855 -15.04356
vt -7.788433 -15.450572
vt -7.986205 -16.020389
vt -11.242913 2.309009
vt -11.393875 2.687036
vt -11.115967 2.981057
vt -11.224905 -0.710491
vt -6.389801 0.589616
vt -11.204629 -1.252202
vt -8.525117 -13.570056
vt -8.604622 -14.535705
vt -8.784886 -14.213822
vt -11.075515 2.139911
vt -11.273589 1.770774
vt -11.229957 2.509048
vt -11.1539 2.77971
vt -11.293383 2.654285
vt -11.163835 3.323221
vt -6.369525 0.047905
vt 11.204629 -1.252202
vt 6.389801 0.589616
vt 11.224905 -0.710491
vt -5.760069 -12.430569
vt -5.84147 -11.346728
vt -5.634446 -11.54379
vt 8.604622 -14.535705
vt 8.525117 -13.570056
vt 8.784886 -14.213822
vt -10.622596 0.092004
vt -10.825721 0.092004
vt -10.594952 0.835085
vt -6.421875 4.296875
vt -11.625 4.140625
vt -11.421875 4.492188
vt -11.28125 4.609375
vt -6.421875 4.6875
vt -11.275834 3.899627
vt -11.276994 4.443697
vt -6.418154 4.945915
vt 6.369525 0.047905
vt 7.788433 -15.450572
vt 7.932855 -15.04356
vt 7.986205 -16.020389
vt -4.989411 -12.79267
vt -4.871551 -11.722113
vt -4.765695 -12.79267
vt 5.760069 -12.430569
vt 5.634446 -11.54379
vt 5.84147 -11.346728
vt -10.622596 1.953763
vt -10.752404 1.199358
vt -10.825721 1.953763
vt -6.421875 3.90625
vt -6.421875 5.078125
vt -6.416995 4.401845
vt 11.276994 4.443697
vt 6.416995 4.401845
vt 6.418154 4.945915
vt 11.393875 2.687036
vt 11.242913 2.309009
vt 11.115967 2.981057
vt 4.989411 -12.79267
vt 4.765695 -12.79267
vt 4.871551 -11.722113
vt -4.824626 -6.445518
vt -4.989411 -5.528775
vt -4.765695 -5.528775
vt 10.825721 0.092004
vt 10.622596 0.092004
vt 10.594952 0.835085
vt -10.553736 1.139091
vt -10.7567 1.020178
vt -10.629145 1.892205
vt -11.765625 3.398438
vt 11.275834 3.899627
vt 11.293383 2.654285
vt 11.1539 2.77971
vt 11.163835 3.323221
vt 11.273589 1.770774
vt 11.075515 2.139911
vt 11.229957 2.509048
vt 4.824626 -6.445518
vt 4.765695 -5.528775
vt 4.989411 -5.528775
vt -4.772272 -6.299157
vt -4.716564 -5.344489
vt -4.548626 -6.25765
vt 10.825721 1.953763
vt 10.752404 1.199358
vt 10.622596 1.953763
vt 11.28125 4.609375
vt 6.421875 4.6875
vt 6.421875 5.078125
vt 11.421875 4.492188
vt 11.625 4.140625
vt 10.7567 1.020178
vt 10.553736 1.139091
vt 10.629145 1.892205
vt 4.772272 -6.299157
vt 4.548626 -6.25765
vt 4.716564 -5.344489
vt 11.765625 3.398438
vt 6.421875 4.296875
vt 6.421875 3.90625
vn -0.33743903278810883 0.877340085248947 -0.3411880331523898
vn -0.9189416281921573 0.36757685127678197 -0.14294594216344023
vn -0.35874691691601734 0.9327407839819232 -0.03598999166489884
vn -0.3668302272981671 0.874278541727195 -0.3179191969915383
vn -0.9287078612487341 0.3048789544503254 -0.2110699684656214
vn -0.9267345466827237 0.3564362102624953 -0.11881207008749843
vn 0.35874691691601734 0.9327407839819232 -0.03598999166489884
vn -0.3984248959563323 0.609354840874621 -0.6855248209837855
vn 0.3668302272981671 0.874278541727195 -0.3179191969915383
vn -0.8734423525524119 0.3234971305749524 -0.36393414689677095
vn -1 0 0
vn -0.933255954708623 0.358944982580221 -0.013849999327852624
vn 0.33743903278810883 0.877340085248947 -0.3411880331523898
vn -0.3363930457647632 0.5963340811285738 -0.7288520991570551
vn 0.3984248959563323 0.609354840874621 -0.6855248209837855
vn -0.9081287520327538 0.17923595105909257 -0.3783868966803368
vn 0.933255954708623 0.358944982580221 -0.013849999327852624
vn 0.9189416281921573 0.36757685127678197 -0.14294594216344023
vn 0.3363930457647632 0.5963340811285738 -0.7288520991570551
vn -0.3928351177048111 0.3481941043290669 -0.8511412550266413
vn 0.8734423525524119 0.3234971305749524 -0.36393414689677095
vn -0.8939004933078453 0.16972790379265038 -0.4148907648262898
vn 0.9267345466827237 0.3564362102624953 -0.11881207008749843
vn 0.9287078612487341 0.3048789544503254 -0.2110699684656214
vn 0.3928351177048111 0.3481941043290669 -0.8511412550266413
vn -0.3728089241732822 0.3381289312269493 -0.8641078242465352
vn 0.9081287520327538 0.17923595105909257 -0.3783868966803368
vn 1 0 0
vn 0.8939004933078453 0.16972790379265038 -0.4148907648262898
vn 0.3728089241732822 0.3381289312269493 -0.8641078242465352
vn 0.33743903278810883 -0.877340085248947 0.3411880331523898
vn 0.9189416281921573 -0.36757685127678197 0.14294594216344023
vn 0.35874691691601734 -0.9327407839819232 0.03598999166489884
vn 0.3668302272981671 -0.874278541727195 0.3179191969915383
vn 0.9287078612487341 -0.3048789544503254 0.2110699684656214
vn 0.9267345466827237 -0.3564362102624953 0.11881207008749843
vn -0.35874691691601734 -0.9327407839819232 0.03598999166489884
vn 0.3984248959563323 -0.609354840874621 0.6855248209837855
vn -0.3668302272981671 -0.874278541727195 0.3179191969915383
vn 0.8734423525524119 -0.3234971305749524 0.36393414689677095
vn 0.933255954708623 -0.358944982580221 0.013849999327852624
vn -0.33743903278810883 -0.877340085248947 0.3411880331523898
vn 0.3363930457647632 -0.5963340811285738 0.7288520991570551
vn -0.3984248959563323 -0.609354840874621 0.6855248209837855
vn 0.9081287520327538 -0.17923595105909257 0.3783868966803368
vn -0.933255954708623 -0.358944982580221 0.013849999327852624
vn -0.9189416281921573 -0.36757685127678197 0.14294594216344023
vn -0.3363930457647632 -0.5963340811285738 0.7288520991570551
vn 0.3928351177048111 -0.3481941043290669 0.8511412550266413
vn -0.8734423525524119 -0.3234971305749524 0.36393414689677095
vn 0.8939004933078453 -0.16972790379265038 0.4148907648262898
vn -0.9267345466827237 -0.3564362102624953 0.11881207008749843
vn -0.9287078612487341 -0.3048789544503254 0.2110699684656214
vn -0.3928351177048111 -0.3481941043290669 0.8511412550266413
vn 0.3728089241732822 -0.3381289312269493 0.8641078242465352
vn -0.9081287520327538 -0.17923595105909257 0.3783868966803368
vn -0.8939004933078453 -0.16972790379265038 0.4148907648262898
vn -0.3728089241732822 -0.3381289312269493 0.8641078242465352
usemtl material_0_0
f 1/1/1 2/2/1 3/3/1
f 2/4/2 1/5/2 4/6/2
f 2/7/3 5/8/3 3/9/3
f 6/10/4 1/11/4 3/12/4
f 1/13/5 7/14/5 4/15/5
f 2/16/6 4/17/6 8/18/6
f 2/7/3 9/19/3 5/8/3
f 3/20/7 5/21/7 10/22/7
f 1/23/8 6/24/8 11/25/8
f 6/26/9 3/27/9 12/28/9
f 1/29/10 11/30/10 7/31/10
f 4/32/11 7/33/11 13/34/11
f 14/35/11 8/36/11 4/32/11
f 9/37/12 2/38/12 8/39/12
f 10/22/7 5/21/7 15/40/7
f 12/41/13 3/42/13 10/43/13
f 11/44/14 6/45/14 16/46/14
f 6/47/15 12/48/15 17/49/15
f 11/50/16 18/51/16 7/52/16
f 13/34/11 7/33/11 19/53/11
f 14/35/11 4/32/11 13/34/11
f 20/54/11 8/36/11 14/35/11
f 9/37/12 8/39/12 20/55/12
f 15/56/17 21/57/17 10/58/17
f 10/59/18 22/60/18 12/61/18
f 6/62/19 17/63/19 16/64/19
f 11/65/20 16/66/20 23/67/20
f 12/68/21 24/69/21 17/70/21
f 11/71/22 23/72/22 18/73/22
f 7/33/11 18/74/11 19/53/11
f 10/58/17 21/57/17 25/75/17
f 10/76/23 25/77/23 22/78/23
f 12/79/24 22/80/24 24/81/24
f 16/82/25 17/83/25 26/84/25
f 23/85/26 16/86/26 27/87/26
f 24/88/27 28/89/27 17/90/27
f 21/91/28 29/92/28 25/93/28
f 29/92/28 22/94/28 25/93/28
f 29/92/28 24/95/28 22/94/28
f 17/96/29 28/97/29 26/98/29
f 16/99/30 26/100/30 27/101/30
f 30/102/28 28/103/28 24/95/28
f 29/92/28 30/102/28 24/95/28
f 30/102/28 31/104/28 28/103/28
usemtl material_1_0
f 3/105/31 2/106/31 1/107/31
f 4/108/32 1/109/32 2/110/32
f 3/111/33 5/112/33 2/113/33
f 3/114/34 1/115/34 6/116/34
f 4/117/35 7/118/35 1/119/35
f 8/120/36 4/121/36 2/122/36
f 5/112/33 9/123/33 2/113/33
f 10/124/37 5/125/37 3/126/37
f 11/127/38 6/128/38 1/129/38
f 12/130/39 3/131/39 6/132/39
f 7/133/40 11/134/40 1/135/40
f 13/136/28 7/137/28 4/138/28
f 4/138/28 8/139/28 14/140/28
f 8/141/41 2/142/41 9/143/41
f 15/144/37 5/125/37 10/124/37
f 10/145/42 3/146/42 12/147/42
f 16/148/43 6/149/43 11/150/43
f 17/151/44 12/152/44 6/153/44
f 7/154/45 18/155/45 11/156/45
f 19/157/28 7/137/28 13/136/28
f 13/136/28 4/138/28 14/140/28
f 14/140/28 8/139/28 20/158/28
f 20/159/41 8/141/41 9/143/41
f 10/160/46 21/161/46 15/162/46
f 12/163/47 22/164/47 10/165/47
f 16/166/48 17/167/48 6/168/48
f 23/169/49 16/170/49 11/171/49
f 17/172/50 24/173/50 12/174/50
f 18/175/51 23/176/51 11/177/51
f 19/157/28 18/178/28 7/137/28
f 25/179/46 21/161/46 10/160/46
f 22/180/52 25/181/52 10/182/52
f 24/183/53 22/184/53 12/185/53
f 26/186/54 17/187/54 16/188/54
f 27/189/55 16/190/55 23/191/55
f 17/192/56 28/193/56 24/194/56
f 25/195/11 29/196/11 21/197/11
f 25/195/11 22/198/11 29/196/11
f 22/198/11 24/199/11 29/196/11
f 26/200/57 28/201/57 17/202/57
f 27/203/58 26/204/58 16/205/58
f 24/199/11 28/206/11 30/207/11
f 24/199/11 30/207/11 29/196/11
f 28/206/11 31/208/11 30/207/11
